<svg width="435" height="131" viewBox="0 0 435 131" fill="none" xmlns="http://www.w3.org/2000/svg">
<g filter="url(#filter0_d_761_5701)">
<path d="M18.5078 16.1089C17.2964 16.1089 16.3145 17.0413 16.3145 18.1916V88.6963C16.3145 91.7279 18.7271 94.1816 21.6943 94.1676L30.3858 94.1268C33.353 94.1129 35.7657 96.5665 35.7657 99.5981V110.087C35.7657 113.109 38.1633 115.558 41.1209 115.558L92.5333 115.558C93.7446 115.558 94.7266 114.626 94.7266 113.476V82.5062C94.7266 81.3532 93.7613 80.4741 92.6376 80.4242C92.1092 80.4007 91.5812 80.5271 91.0523 80.5271H57.8599C54.9023 80.5271 52.5047 78.0775 52.5047 75.0558V18.1916C52.5047 17.0413 51.5227 16.1089 50.3113 16.1089H18.5078Z" fill="url(#paint0_linear_761_5701)" shape-rendering="crispEdges"/>
<path d="M18.5078 16.4907H50.3115C51.3306 16.4908 52.123 17.2711 52.123 18.1919V75.0562C52.1232 78.281 54.6841 80.9097 57.8604 80.9097H91.0527C91.3424 80.9096 91.6305 80.875 91.8867 80.8472C92.0854 80.8256 92.2685 80.8075 92.4453 80.8042L92.6211 80.8062C93.5674 80.8484 94.3447 81.5839 94.3447 82.5063V113.476C94.3445 114.397 93.5523 115.176 92.5332 115.176H41.1211L40.8652 115.169C38.2444 115.033 36.1476 112.818 36.1475 110.087V99.5981C36.1475 96.4637 33.7291 93.8942 30.6807 93.7505L30.3838 93.7446L21.6924 93.7856L21.4365 93.7798C18.8067 93.6555 16.6965 91.4359 16.6963 88.6968V18.1919C16.6963 17.2711 17.4886 16.4907 18.5078 16.4907Z" stroke="url(#paint1_linear_761_5701)" stroke-width="0.764241" shape-rendering="crispEdges"/>
</g>
<path d="M144.57 100.578L144.45 31.7271L154.286 31.7101L154.405 100.561L144.57 100.578ZM149.586 100.57L149.569 91.1271L188.323 91.0599L188.339 100.502L149.586 100.57ZM211.167 101.84C207.823 101.846 204.805 101.195 202.114 99.8883C199.489 98.5814 197.421 96.7817 195.909 94.4893C194.396 92.1313 193.638 89.4442 193.632 86.4278C193.624 81.9033 195.192 78.2941 198.335 75.6002C201.477 72.8407 205.934 71.2264 211.703 70.7574L230.782 69.1506L230.797 77.6094L213.39 79.0166C210.046 79.2847 207.588 80.0103 206.016 81.1933C204.445 82.3764 203.661 83.9843 203.664 86.017C203.668 87.9842 204.523 89.622 206.23 90.9305C207.937 92.1734 210.102 92.7926 212.725 92.7881C215.479 92.7833 217.97 92.1232 220.197 90.8079C222.49 89.4925 224.29 87.7517 225.597 85.5855C226.905 83.3538 227.557 80.9593 227.552 78.4019L227.538 70.3365C227.532 66.8612 226.413 64.0107 224.179 61.7851C222.011 59.5594 219.124 58.4497 215.518 58.4559C212.501 58.4612 209.978 59.1868 207.948 60.6329C205.983 62.079 204.675 63.9828 204.024 66.3446L202.942 66.3465L194.479 64.0005C195.782 59.6049 198.268 56.0924 201.936 53.4632C205.603 50.8339 210.125 49.5146 215.502 49.5053C222.387 49.4933 227.735 51.5168 231.545 55.5757C235.355 59.569 237.267 65.205 237.279 72.4835L237.328 100.417L228.279 100.433L228.254 86.0727L231.797 87.1485C231.015 89.8384 229.609 92.2998 227.58 94.5328C225.617 96.7656 223.227 98.5402 220.409 99.8566C217.592 101.173 214.511 101.834 211.167 101.84ZM258.111 100.381L241.797 51.7219L241.796 50.9351L251.632 50.918L265.577 95.2537L267.553 100.365L258.111 100.381ZM258.111 100.381L260.364 95.2628L274.648 50.8781L284.287 50.8614L283.403 51.6498L267.553 100.365L258.111 100.381ZM291.553 100.323L275.534 51.6634L274.648 50.8781L284.287 50.8614L298.724 95.1963L300.995 100.307L291.553 100.323ZM291.553 100.323L293.511 95.2053L307.303 50.8215L317.139 50.8044L317.14 51.5913L300.995 100.307L291.553 100.323ZM330.305 100.256L330.289 91.1088L351.24 91.0725C355.24 91.0656 358.254 90.0439 360.284 88.0077C362.378 85.9057 363.422 83.0515 363.416 79.445C363.41 75.9041 362.291 73.152 360.058 71.1887C357.89 69.1597 354.938 68.1484 351.2 68.1549L330.25 68.1912L330.234 59.339L349.611 59.3054C351.775 59.3016 353.643 58.9049 355.215 58.1153C356.853 57.26 358.097 56.1432 358.947 54.7647C359.863 53.3205 360.319 51.6804 360.316 49.8443C360.311 47.0247 359.356 44.7641 357.452 43.0625C355.613 41.3608 352.988 40.5129 349.578 40.5188L330.202 40.5524L330.186 31.4051L349.563 31.3715C355.989 31.3603 361.008 33.0565 364.62 36.46C368.233 39.798 370.043 44.1226 370.053 49.434C370.057 51.7946 369.503 54.025 368.392 56.1253C367.281 58.2256 365.776 59.9986 363.877 61.4445C361.978 62.8904 359.848 63.8449 357.488 64.308L357.484 61.9474C360.436 62.2046 363.093 63.1836 365.457 64.8843C367.886 66.585 369.791 68.7128 371.172 71.2678C372.619 73.8226 373.346 76.6737 373.351 79.8212C373.362 85.985 371.469 90.9391 367.672 94.6833C363.875 98.3619 358.6 100.207 351.846 100.219L330.305 100.256ZM325.191 100.265L325.071 31.4139L334.71 31.3972L334.83 100.248L325.191 100.265ZM382.589 100.166L382.503 50.6911L392.339 50.674L392.425 100.148L382.589 100.166ZM387.407 42.4204C385.571 42.4236 384.029 41.8033 382.781 40.5596C381.533 39.2503 380.907 37.7105 380.904 35.94C380.901 34.104 381.521 32.5619 382.765 31.3139C384.009 30.0659 385.548 29.4403 387.384 29.4371C389.155 29.434 390.664 30.0543 391.912 31.298C393.226 32.5416 393.884 34.0815 393.887 35.9175C393.89 37.688 393.237 39.23 391.928 40.5438C390.684 41.7918 389.177 42.4174 387.407 42.4204ZM420.582 100.1C416.057 100.107 412.383 98.6713 409.558 95.791C406.799 92.9105 405.415 89.0114 405.407 84.0934L405.326 37.5698L415.162 37.5527L415.241 83.1911C415.246 85.8796 415.872 87.8785 417.12 89.1878C418.434 90.4314 420.435 91.0509 423.123 91.0462L428.631 91.0367L429.125 92.1177L429.139 100.085L420.582 100.1ZM396.906 59.7151L396.89 50.6661L429.053 50.6104L429.069 59.6594L396.906 59.7151Z" fill="white"/>
<defs>
<filter id="filter0_d_761_5701" x="0.876773" y="0.671206" width="109.287" height="130.325" filterUnits="userSpaceOnUse" color-interpolation-filters="sRGB">
<feFlood flood-opacity="0" result="BackgroundImageFix"/>
<feColorMatrix in="SourceAlpha" type="matrix" values="0 0 0 0 0 0 0 0 0 0 0 0 0 0 0 0 0 0 127 0" result="hardAlpha"/>
<feOffset/>
<feGaussianBlur stdDeviation="7.71884"/>
<feComposite in2="hardAlpha" operator="out"/>
<feColorMatrix type="matrix" values="0 0 0 0 1 0 0 0 0 1 0 0 0 0 1 0 0 0 0.35 0"/>
<feBlend mode="normal" in2="BackgroundImageFix" result="effect1_dropShadow_761_5701"/>
<feBlend mode="normal" in="SourceGraphic" in2="effect1_dropShadow_761_5701" result="shape"/>
</filter>
<linearGradient id="paint0_linear_761_5701" x1="41.4678" y1="15.7711" x2="84.1373" y2="87.5072" gradientUnits="userSpaceOnUse">
<stop stop-color="#F8F8F8" stop-opacity="0.9"/>
<stop offset="1" stop-color="#F8F8F8" stop-opacity="0.2"/>
</linearGradient>
<linearGradient id="paint1_linear_761_5701" x1="55.5205" y1="16.1089" x2="55.5205" y2="115.558" gradientUnits="userSpaceOnUse">
<stop stop-color="#999999" stop-opacity="0"/>
<stop offset="1" stop-color="#F6F6F6"/>
</linearGradient>
</defs>
</svg>
