<?xml version="1.0" encoding="UTF-8"?>
<svg width="24px" height="24px" viewBox="0 0 24 24" version="1.1" xmlns="http://www.w3.org/2000/svg">
    <g stroke="none" stroke-width="1" fill="none" fill-rule="evenodd">
        <path d="M20.64,12.2045455 C20.64,11.5663636 20.5827273,10.9527273 20.4763636,10.3636364 L12,10.3636364 L12,13.845 L16.8436364,13.845 C16.635,14.97 16.0009091,15.9231818 15.0477273,16.5613636 L15.0477273,18.5618182 L17.9563636,18.5618182 C19.6581818,17.0045455 20.64,14.8636364 20.64,12.2045455 L20.64,12.2045455 Z" fill="#4285F4"/>
        <path d="M12,21 C14.43,21 16.4672727,20.1940909 17.9563636,18.5618182 L15.0477273,16.5613636 C14.2418182,17.1013636 13.2109091,17.4204545 12,17.4204545 C9.65590909,17.4204545 7.67181818,15.8372727 6.96409091,13.71 L3.95727273,13.71 L3.95727273,15.7418182 C5.43818182,18.6027273 8.48181818,21 12,21 L12,21 Z" fill="#34A853"/>
        <path d="M6.96409091,13.71 C6.78409091,13.17 6.68181818,12.5931818 6.68181818,12 C6.68181818,11.4068182 6.78409091,10.83 6.96409091,10.29 L6.96409091,8.25818182 L3.95727273,8.25818182 C3.34772727,9.52272727 3,10.9145455 3,12.3636364 C3,13.8127273 3.34772727,15.2045455 3.95727273,16.4690909 L6.96409091,13.71 L6.96409091,13.71 Z" fill="#FBBC05"/>
        <path d="M12,6.57954545 C13.3213636,6.57954545 14.5077273,7.03363636 15.4404545,7.92545455 L18.3618182,5.00409091 C16.4672727,3.20318182 14.43,2.36363636 12,2.36363636 C8.48181818,2.36363636 5.43818182,4.76090909 3.95727273,7.62181818 L6.96409091,9.65363636 C7.67181818,7.52636364 9.65590909,5.94318182 12,5.94318182 L12,6.57954545 Z" fill="#EA4335"/>
    </g>
</svg> 