<svg width="66" height="20" viewBox="0 0 66 20" fill="none" xmlns="http://www.w3.org/2000/svg">
<path d="M0.00233325 12.6293C-0.0189725 12.4513 0.108013 12.2898 0.285967 12.2685L11.718 10.9148L14.5713 10.5731L23.8726 9.47623C24.0506 9.45492 24.2121 9.58191 24.2334 9.75987L24.4263 11.371C24.4476 11.5489 24.3206 11.7105 24.1427 11.7318L14.543 12.8643L10.0823 13.3985L0.556039 14.524C0.378077 14.5453 0.216533 14.4183 0.195226 14.2404L0.00233325 12.6293Z" fill="white"/>
<path d="M5.60832 2.64941C5.52189 2.49239 5.57912 2.29504 5.73614 2.20862L7.15774 1.42616C7.31475 1.33974 7.5121 1.39697 7.59852 1.55398L11.1615 7.83269C11.2479 7.98971 11.1907 8.18706 11.0336 8.27348L9.61204 9.05594C9.45503 9.14236 9.25768 9.08513 9.17126 8.92812L5.60832 2.64941ZM12.1193 13.1722C12.0329 13.0152 12.0901 12.8179 12.2471 12.7315L13.6687 11.949C13.8257 11.8626 14.0231 11.9198 14.1095 12.0768L14.543 12.8643L17.7751 18.7362C17.8615 18.8932 17.8043 19.0906 17.6472 19.177L16.2256 19.9594C16.0686 20.0459 15.8713 19.9886 15.7848 19.8316L12.5076 13.8777L12.1193 13.1722Z" fill="white"/>
<path d="M18.8076 0.584765C18.9757 0.64706 19.0614 0.833795 18.9991 1.00185L18.7172 1.76254L18.6042 2.0648C17.4882 5.02445 16.1362 7.86817 14.5713 10.5731C13.9197 11.6992 13.2313 12.8013 12.5076 13.8777C11.5863 15.2479 10.6079 16.5765 9.57576 17.8599C9.47379 17.9867 9.2863 18.0013 9.16533 17.8925L7.89729 16.7518C7.78477 16.6506 7.77126 16.479 7.8659 16.3609C8.63659 15.3991 9.37591 14.4112 10.0823 13.3985C10.649 12.5862 11.1945 11.758 11.718 10.9148C13.6558 7.79349 15.2923 4.46602 16.5871 0.973007L16.8691 0.212271C16.9315 0.044236 17.1182 -0.0414806 17.2862 0.020809L18.8076 0.584765Z" fill="white"/>
<path d="M31.7739 12L27.914 6.32804V6.10048H28.7567L32.6251 11.7724V12H31.7739ZM27.914 12V6.10048H28.7567V12H27.914ZM31.7739 12V6.10048H32.6251V12H31.7739ZM35.5575 12.118C35.1361 12.118 34.7625 12.0253 34.4366 11.8399C34.1163 11.6488 33.8663 11.3848 33.6865 11.0476C33.5067 10.7105 33.4168 10.32 33.4168 9.87617C33.4168 9.43231 33.5039 9.04462 33.6781 8.71313C33.8579 8.37601 34.1051 8.11475 34.4198 7.92933C34.74 7.7383 35.108 7.64279 35.5238 7.64279C35.934 7.64279 36.2907 7.7383 36.5941 7.92933C36.9032 8.12037 37.142 8.39006 37.3105 8.73841C37.4847 9.08114 37.5718 9.48287 37.5718 9.9436V10.07L37.4454 10.1964H33.8467V9.45478H37.1672L36.7374 9.62334C36.7262 9.3705 36.6644 9.15419 36.552 8.97439C36.4453 8.7946 36.302 8.65694 36.1222 8.56143C35.948 8.46029 35.7514 8.40972 35.5322 8.40972C35.2963 8.40972 35.0799 8.46591 34.8833 8.57828C34.6866 8.69065 34.5321 8.84797 34.4198 9.05024C34.313 9.24689 34.2596 9.47725 34.2596 9.74133V9.99416C34.2596 10.2526 34.3158 10.4858 34.4282 10.6937C34.5406 10.8959 34.6951 11.0561 34.8917 11.1741C35.0884 11.2921 35.3103 11.3511 35.5575 11.3511C35.7935 11.3511 36.0014 11.2921 36.1812 11.1741C36.3666 11.0505 36.5127 10.8875 36.6194 10.6853H36.7206L37.4032 10.9802C37.2403 11.3342 36.9987 11.6123 36.6784 11.8146C36.3582 12.0169 35.9845 12.118 35.5575 12.118ZM42.1172 7.76078V12H41.3166V10.8622L41.5441 10.9297C41.4599 11.1713 41.3334 11.382 41.1649 11.5618C40.9963 11.7359 40.7969 11.8736 40.5665 11.9747C40.3418 12.0702 40.0974 12.118 39.8333 12.118C39.5355 12.118 39.2658 12.0534 39.0242 11.9241C38.7826 11.7893 38.5916 11.5955 38.4511 11.3426C38.3106 11.0842 38.2404 10.7667 38.2404 10.3903V7.76078H39.0832V10.1543C39.0832 10.4352 39.1225 10.6628 39.2012 10.837C39.2855 11.0111 39.4007 11.1375 39.5467 11.2162C39.6928 11.2892 39.8614 11.3258 40.0524 11.3258C40.2434 11.3258 40.4317 11.278 40.6171 11.1825C40.8081 11.087 40.9654 10.9381 41.089 10.7358C41.2126 10.5335 41.2745 10.2723 41.2745 9.95203V7.76078H42.1172ZM43.0522 12V7.76078H43.8529V8.89854L43.6253 8.82269C43.7377 8.49681 43.9287 8.23836 44.1984 8.04732C44.4737 7.85629 44.7883 7.76078 45.1423 7.76078H45.5553V8.53614H45.0075C44.7827 8.53614 44.5861 8.58952 44.4175 8.69627C44.2546 8.79741 44.1254 8.94068 44.0298 9.12609C43.9399 9.31151 43.895 9.53063 43.895 9.78347V12H43.0522ZM47.1613 12.118C46.8748 12.118 46.6163 12.0618 46.386 11.9494C46.1612 11.8371 45.9842 11.6825 45.855 11.4859C45.7258 11.2836 45.6612 11.0533 45.6612 10.7948C45.6612 10.4071 45.796 10.0981 46.0657 9.86775C46.3354 9.63177 46.7175 9.49411 47.2119 9.45478L48.8469 9.31993V10.0447L47.3552 10.1627C47.0686 10.1852 46.8579 10.247 46.7231 10.3481C46.5882 10.4493 46.5208 10.5869 46.5208 10.7611C46.5208 10.9297 46.5938 11.0701 46.7399 11.1825C46.886 11.2892 47.0714 11.3426 47.2962 11.3426C47.5322 11.3426 47.7457 11.2864 47.9367 11.1741C48.1333 11.0617 48.2879 10.9128 48.4002 10.7274C48.5126 10.5364 48.5688 10.3313 48.5688 10.1122V9.42107C48.5688 9.12328 48.4733 8.87888 48.2822 8.68784C48.0968 8.49681 47.8496 8.4013 47.5406 8.4013C47.2821 8.4013 47.0658 8.4631 46.8916 8.58671C46.7231 8.71032 46.6107 8.87326 46.5545 9.07553H46.4618L45.737 8.87326C45.8494 8.49681 46.0629 8.19622 46.3775 7.97147C46.6922 7.74673 47.0799 7.63436 47.5406 7.63436C48.1305 7.63436 48.5884 7.80853 48.9143 8.15689C49.2402 8.49962 49.4031 8.98282 49.4031 9.60648V12H48.6278V10.7695L48.9312 10.8622C48.8638 11.0926 48.743 11.3033 48.5688 11.4943C48.4002 11.6854 48.1951 11.8371 47.9535 11.9494C47.7119 12.0618 47.4479 12.118 47.1613 12.118ZM50.4279 12V5.93193L51.2454 5.83079L51.2707 5.89822V12H50.4279ZM56.152 12L54.0198 6.27747L53.9692 6.10048H54.812L57.0538 11.9326V12H56.152ZM51.7274 12V11.9326L53.9692 6.10048H54.812L54.7446 6.27747L52.6123 12H51.7274ZM52.6545 10.542L52.9073 9.7329H55.9498L56.2026 10.542H52.6545ZM57.4642 12V7.76078H58.2649V8.89854L58.0373 8.82269C58.1497 8.49681 58.3407 8.23836 58.6104 8.04732C58.8857 7.85629 59.2004 7.76078 59.5543 7.76078H59.9673V8.53614H59.4195C59.1947 8.53614 58.9981 8.58952 58.8295 8.69627C58.6666 8.79741 58.5374 8.94068 58.4418 9.12609C58.3519 9.31151 58.307 9.53063 58.307 9.78347V12H57.4642ZM62.1886 12.118C61.7615 12.118 61.3851 12.0253 61.0592 11.8399C60.7333 11.6488 60.4777 11.3848 60.2923 11.0476C60.1125 10.7105 60.0226 10.32 60.0226 9.87617C60.0226 9.43231 60.1125 9.04462 60.2923 8.71313C60.4777 8.37601 60.7333 8.11475 61.0592 7.92933C61.3851 7.7383 61.7615 7.64279 62.1886 7.64279C62.5201 7.64279 62.815 7.69897 63.0735 7.81134C63.3376 7.92372 63.5623 8.08946 63.7477 8.30859C63.9331 8.5221 64.0708 8.78617 64.1607 9.10081L63.4443 9.30308H63.3516C63.2617 9.02777 63.11 8.81145 62.8965 8.65413C62.6886 8.49681 62.4526 8.41815 62.1886 8.41815C61.9189 8.41815 61.6857 8.47996 61.489 8.60356C61.2924 8.72717 61.1379 8.89854 61.0255 9.11767C60.9188 9.33117 60.8654 9.58401 60.8654 9.87617C60.8654 10.1683 60.9188 10.424 61.0255 10.6431C61.1379 10.8622 61.2924 11.0336 61.489 11.1572C61.6857 11.2752 61.9189 11.3342 62.1886 11.3342C62.3796 11.3342 62.5538 11.3005 62.7111 11.2331C62.8684 11.1656 63.0033 11.0673 63.1156 10.9381C63.2336 10.8032 63.3235 10.6431 63.3853 10.4577H63.478L64.2028 10.66C64.1017 10.9746 63.9556 11.2415 63.7646 11.4606C63.5735 11.6797 63.346 11.8455 63.0819 11.9579C62.8235 12.0646 62.5257 12.118 62.1886 12.118Z" fill="white"/>
</svg>
