<svg width="226" height="61" viewBox="0 0 226 61" fill="none" xmlns="http://www.w3.org/2000/svg">
<path d="M0.00700599 37.9201C-0.0569683 37.3857 0.324328 36.9007 0.858666 36.8367L35.1853 32.772L43.7527 31.746L71.6816 28.4526C72.216 28.3886 72.7011 28.7699 72.7651 29.3042L73.3443 34.1419C73.4082 34.6762 73.0269 35.1613 72.4926 35.2253L43.6678 38.6259L30.2739 40.23L1.6696 43.6094C1.13524 43.6734 0.650177 43.2921 0.5862 42.7577L0.00700599 37.9201Z" fill="white"/>
<path d="M16.8399 7.95384C16.5804 7.48237 16.7523 6.88979 17.2237 6.63029L21.4923 4.28084C21.9638 4.02134 22.5564 4.19317 22.8159 4.66463L33.5142 23.5175C33.7737 23.989 33.6019 24.5816 33.1304 24.8411L28.8618 27.1906C28.3904 27.4501 27.7978 27.2782 27.5383 26.8068L16.8399 7.95384ZM36.3903 39.5505C36.1307 39.079 36.3026 38.4864 36.7741 38.2269L41.0427 35.8775C41.5141 35.618 42.1067 35.7898 42.3662 36.2613L43.6678 38.6259L53.3727 56.2572C53.6322 56.7287 53.4603 57.3212 52.9889 57.5807L48.7203 59.9302C48.2488 60.1897 47.6562 60.0179 47.3967 59.5464L37.5561 41.6686L36.3903 39.5505Z" fill="white"/>
<path d="M56.4732 1.75439C56.9778 1.94144 57.2352 2.50215 57.0482 3.00676L56.2015 5.29086L55.8624 6.19844C52.5113 15.0853 48.4517 23.6241 43.7527 31.746C41.7964 35.1274 39.7292 38.4366 37.5561 41.6686C34.7898 45.783 31.852 49.7722 28.7529 53.626C28.4467 54.0068 27.8837 54.0506 27.5205 53.7238L23.713 50.2987C23.3751 49.9948 23.3345 49.4797 23.6187 49.1251C25.9329 46.2371 28.1528 43.2705 30.2739 40.23C31.9754 37.7908 33.6134 35.304 35.1853 32.772C41.0038 23.3998 45.9177 13.4085 49.8055 2.92016L50.6525 0.635913C50.8396 0.13136 51.4003 -0.126019 51.9049 0.0610166L56.4732 1.75439Z" fill="white"/>
<path d="M94.8304 37.0256L83.2402 19.9946V19.3113H85.7708L97.3863 36.3424V37.0256H94.8304ZM83.2402 37.0256V19.3113H85.7708V37.0256H83.2402ZM94.8304 37.0256V19.3113H97.3863V37.0256H94.8304ZM106.191 37.3799C104.926 37.3799 103.804 37.1016 102.826 36.5448C101.864 35.9712 101.113 35.1783 100.573 34.166C100.033 33.1538 99.7635 31.9813 99.7635 30.6485C99.7635 29.3157 100.025 28.1516 100.548 27.1562C101.088 26.144 101.83 25.3595 102.775 24.8028C103.737 24.2291 104.842 23.9423 106.09 23.9423C107.322 23.9423 108.393 24.2291 109.304 24.8028C110.232 25.3764 110.949 26.1862 111.455 27.2321C111.978 28.2613 112.239 29.4675 112.239 30.8509V31.2305L111.86 31.6101H101.054V29.3832H111.025L109.734 29.8893C109.7 29.1301 109.515 28.4806 109.177 27.9407C108.857 27.4009 108.427 26.9875 107.887 26.7007C107.364 26.397 106.773 26.2452 106.115 26.2452C105.407 26.2452 104.757 26.4139 104.167 26.7513C103.576 27.0887 103.112 27.5611 102.775 28.1685C102.454 28.759 102.294 29.4507 102.294 30.2436V31.0028C102.294 31.7788 102.463 32.479 102.8 33.1032C103.138 33.7105 103.602 34.1913 104.192 34.5456C104.783 34.8999 105.449 35.0771 106.191 35.0771C106.9 35.0771 107.524 34.8999 108.064 34.5456C108.621 34.1745 109.059 33.6852 109.38 33.0779H109.684L111.733 33.9636C111.244 35.0264 110.519 35.8616 109.557 36.4689C108.595 37.0762 107.473 37.3799 106.191 37.3799ZM125.888 24.2966V37.0256H123.484V33.6093L124.167 33.8118C123.914 34.5372 123.535 35.1698 123.028 35.7097C122.522 36.2327 121.923 36.646 121.232 36.9497C120.557 37.2365 119.823 37.3799 119.03 37.3799C118.136 37.3799 117.326 37.1859 116.601 36.7979C115.875 36.393 115.302 35.8109 114.88 35.0518C114.458 34.2757 114.247 33.3225 114.247 32.1922V24.2966H116.778V31.4836C116.778 32.3271 116.896 33.0104 117.132 33.5334C117.385 34.0564 117.731 34.436 118.17 34.6722C118.608 34.8915 119.114 35.0011 119.688 35.0011C120.262 35.0011 120.827 34.8577 121.383 34.5709C121.957 34.2841 122.429 33.8371 122.801 33.2297C123.172 32.6224 123.357 31.8379 123.357 30.8762V24.2966H125.888ZM128.695 37.0256V24.2966H131.099V27.713L130.416 27.4852C130.754 26.5067 131.327 25.7306 132.137 25.157C132.964 24.5834 133.908 24.2966 134.971 24.2966H136.211V26.6248H134.566C133.892 26.6248 133.301 26.7851 132.795 27.1056C132.306 27.4093 131.918 27.8395 131.631 28.3962C131.361 28.953 131.226 29.6109 131.226 30.3701V37.0256H128.695ZM141.034 37.3799C140.173 37.3799 139.397 37.2112 138.706 36.8738C138.031 36.5364 137.499 36.0724 137.111 35.482C136.723 34.8746 136.529 34.1829 136.529 33.4069C136.529 32.2428 136.934 31.3149 137.744 30.6232C138.554 29.9146 139.701 29.5013 141.186 29.3832L146.095 28.9783V31.1546L141.616 31.5089C140.755 31.5764 140.123 31.762 139.718 32.0656C139.313 32.3693 139.11 32.7826 139.11 33.3056C139.11 33.8118 139.33 34.2335 139.768 34.5709C140.207 34.8915 140.764 35.0518 141.439 35.0518C142.147 35.0518 142.788 34.883 143.362 34.5456C143.952 34.2082 144.416 33.7611 144.754 33.2044C145.091 32.6308 145.26 32.015 145.26 31.3571V29.2819C145.26 28.3878 144.973 27.6539 144.399 27.0803C143.843 26.5067 143.1 26.2199 142.172 26.2199C141.396 26.2199 140.747 26.4055 140.224 26.7766C139.718 27.1478 139.38 27.637 139.212 28.2444H138.933L136.757 27.637C137.094 26.5067 137.735 25.6041 138.68 24.9293C139.625 24.2545 140.789 23.917 142.172 23.917C143.944 23.917 145.319 24.44 146.297 25.486C147.276 26.5151 147.765 27.966 147.765 29.8387V37.0256H145.437V33.3309L146.348 33.6093C146.146 34.301 145.783 34.9337 145.26 35.5073C144.754 36.0809 144.138 36.5364 143.412 36.8738C142.687 37.2112 141.894 37.3799 141.034 37.3799ZM150.842 37.0256V18.8052L153.297 18.5015L153.373 18.704V37.0256H150.842ZM168.03 37.0256L161.627 19.8427L161.476 19.3113H164.006L170.738 36.8232V37.0256H168.03ZM154.744 37.0256V36.8232L161.476 19.3113H164.006L163.804 19.8427L157.401 37.0256H154.744ZM157.528 32.6477L158.287 30.2183H167.423L168.182 32.6477H157.528ZM171.97 37.0256V24.2966H174.374V27.713L173.691 27.4852C174.028 26.5067 174.602 25.7306 175.412 25.157C176.238 24.5834 177.183 24.2966 178.246 24.2966H179.486V26.6248H177.841C177.166 26.6248 176.576 26.7851 176.07 27.1056C175.58 27.4093 175.192 27.8395 174.905 28.3962C174.635 28.953 174.501 29.6109 174.501 30.3701V37.0256H171.97ZM186.156 37.3799C184.873 37.3799 183.743 37.1016 182.765 36.5448C181.786 35.9712 181.018 35.1783 180.462 34.166C179.922 33.1538 179.652 31.9813 179.652 30.6485C179.652 29.3157 179.922 28.1516 180.462 27.1562C181.018 26.144 181.786 25.3595 182.765 24.8028C183.743 24.2291 184.873 23.9423 186.156 23.9423C187.151 23.9423 188.037 24.1111 188.813 24.4485C189.606 24.7859 190.281 25.2836 190.837 25.9415C191.394 26.5826 191.807 27.3755 192.077 28.3203L189.926 28.9277H189.648C189.378 28.101 188.922 27.4515 188.281 26.9791C187.657 26.5067 186.949 26.2705 186.156 26.2705C185.346 26.2705 184.646 26.4561 184.055 26.8272C183.465 27.1984 183.001 27.713 182.663 28.3709C182.343 29.012 182.183 29.7712 182.183 30.6485C182.183 31.5258 182.343 32.2934 182.663 32.9513C183.001 33.6093 183.465 34.1239 184.055 34.495C184.646 34.8493 185.346 35.0264 186.156 35.0264C186.729 35.0264 187.252 34.9252 187.725 34.7228C188.197 34.5203 188.602 34.2251 188.939 33.8371C189.294 33.4322 189.564 32.9513 189.749 32.3946H190.027L192.204 33.002C191.9 33.9467 191.461 34.7481 190.888 35.406C190.314 36.064 189.631 36.5617 188.838 36.8991C188.062 37.2196 187.168 37.3799 186.156 37.3799Z" fill="white"/>
<path d="M200.108 21V9.8H201.484V21H200.108ZM196.636 11.112V9.8H204.94V11.112H196.636ZM212.114 21L212.13 20.664L216.77 9.8H218.066V10.136L213.426 21H212.114ZM207.058 21V9.8H208.418V21H207.058ZM212.13 21L207.474 10.136V9.8H208.786L213.426 20.664V21H212.13ZM217.122 21V9.8H218.482V21H217.122Z" fill="white"/>
</svg>
