<svg width="24" height="24" viewBox="0 0 24 24" fill="none" xmlns="http://www.w3.org/2000/svg">
<path fill-rule="evenodd" clip-rule="evenodd" d="M12 21C13.1819 21 14.3522 20.7672 15.4442 20.3149C16.5361 19.8626 17.5282 19.1997 18.364 18.364C19.1997 17.5282 19.8626 16.5361 20.3149 15.4442C20.7672 14.3522 21 13.1819 21 12C21 10.8181 20.7672 9.64778 20.3149 8.55585C19.8626 7.46392 19.1997 6.47177 18.364 5.63604C17.5282 4.80031 16.5361 4.13738 15.4442 3.68508C14.3522 3.23279 13.1819 3 12 3C9.61305 3 7.32387 3.94821 5.63604 5.63604C3.94821 7.32387 3 9.61305 3 12C3 14.3869 3.94821 16.6761 5.63604 18.364C7.32387 20.0518 9.61305 21 12 21ZM11.768 15.64L16.128 10.408C16.4814 9.98386 16.4241 9.35345 16 8.99997C15.5758 8.64651 14.9455 8.70379 14.592 9.1279L11.243 13.1459C11.076 13.3462 10.773 13.3599 10.5886 13.1755L9.41392 12.0002C9.02352 11.6097 8.3904 11.6096 7.99992 12.0001C7.6095 12.3905 7.6095 13.0235 7.99992 13.4139L10.293 15.707C10.7087 16.1227 11.3916 16.0915 11.768 15.64Z" fill="white"/>
</svg>
