<svg width="44" height="44" viewBox="0 0 44 44" fill="none" xmlns="http://www.w3.org/2000/svg">
<rect width="44" height="44" rx="22" fill="#F8F8F8" fill-opacity="0.05"/>
<g clip-path="url(#clip0_6112_88416)">
<path d="M16.5 16H16.61C17.0124 15.9897 17.4024 15.8582 17.7289 15.6227C18.0554 15.3872 18.3033 15.0586 18.44 14.68L18.474 14.577L18.571 14.286C18.654 14.037 18.696 13.913 18.751 13.807C18.8592 13.5994 19.0145 13.42 19.2045 13.2832C19.3944 13.1463 19.6138 13.0559 19.845 13.019C19.962 13 20.093 13 20.355 13H23.645C23.907 13 24.038 13 24.155 13.019C24.3862 13.0559 24.6056 13.1463 24.7955 13.2832C24.9855 13.42 25.1408 13.5994 25.249 13.807C25.304 13.913 25.346 14.037 25.429 14.286L25.526 14.577C25.6527 14.9983 25.9148 15.366 26.2717 15.6233C26.6285 15.8805 27.0603 16.0129 27.5 16" stroke="#989898" stroke-width="1.5"/>
<path d="M30.5 16H13.5M28.833 18.5L28.373 25.4C28.196 28.054 28.108 29.381 27.243 30.19C26.378 30.999 25.048 31 22.387 31H21.613C18.953 31 17.623 31 16.757 30.19C15.892 29.381 15.804 28.054 15.627 25.4L15.167 18.5" stroke="white" stroke-width="1.5" stroke-linecap="round"/>
<path d="M19.5 21L20 26M24.5 21L24 26" stroke="#989898" stroke-width="1.5" stroke-linecap="round"/>
</g>
<defs>
<clipPath id="clip0_6112_88416">
<rect width="24" height="24" fill="white" transform="translate(10 10)"/>
</clipPath>
</defs>
</svg>
