<svg width="24" height="25" viewBox="0 0 24 25" fill="none" xmlns="http://www.w3.org/2000/svg">
<path d="M20.1538 10.7734H11.8462C10.8266 10.7734 10 11.6 10 12.6196V20.9273C10 21.9469 10.8266 22.7734 11.8462 22.7734H20.1538C21.1734 22.7734 22 21.9469 22 20.9273V12.6196C22 11.6 21.1734 10.7734 20.1538 10.7734Z" stroke="white" stroke-width="1.5" stroke-linecap="round" stroke-linejoin="round"/>
<path d="M5.76923 15.7734H4.84615C4.35652 15.7734 3.88695 15.5789 3.54073 15.2327C3.1945 14.8865 3 14.4169 3 13.9273V5.61959C3 5.12996 3.1945 4.66038 3.54073 4.31416C3.88695 3.96794 4.35652 3.77344 4.84615 3.77344H13.1538C13.6435 3.77344 14.1131 3.96794 14.4593 4.31416C14.8055 4.66038 15 5.12996 15 5.61959V6.54267" stroke="white" stroke-width="1.5" stroke-linecap="round" stroke-linejoin="round"/>
</svg>
