<svg width="45" height="44" viewBox="0 0 45 44" fill="none" xmlns="http://www.w3.org/2000/svg">
<rect x="0.833374" width="44" height="44" rx="22" fill="#D3BEB4"/>
<g clip-path="url(#clip0_199_40511)">
<path d="M20.5001 30.7766C19.6297 30.5792 18.7938 30.2526 18.0201 29.8076" stroke="black" stroke-width="2" stroke-linecap="round" stroke-linejoin="round"/>
<path d="M24.5001 13.2227C26.4883 13.6767 28.2634 14.7923 29.5348 16.3869C30.8062 17.9814 31.4986 19.9603 31.4986 21.9997C31.4986 24.039 30.8062 26.0179 29.5348 27.6125C28.2634 29.207 26.4883 30.3226 24.5001 30.7767" stroke="black" stroke-width="2" stroke-linecap="round" stroke-linejoin="round"/>
<path d="M15.0792 27.093C14.5337 26.3004 14.1194 25.4252 13.8522 24.501" stroke="black" stroke-width="2" stroke-linecap="round" stroke-linejoin="round"/>
<path d="M13.6241 20.4995C13.7841 19.5495 14.0921 18.6495 14.5241 17.8245L14.6931 17.5195" stroke="black" stroke-width="2" stroke-linecap="round" stroke-linejoin="round"/>
<path d="M17.4071 14.5787C18.3428 13.9346 19.3924 13.4744 20.5001 13.2227" stroke="black" stroke-width="2" stroke-linecap="round" stroke-linejoin="round"/>
<path d="M19.5001 22L21.5001 24L25.5001 20" stroke="black" stroke-width="2" stroke-linecap="round" stroke-linejoin="round"/>
</g>
<defs>
<clipPath id="clip0_199_40511">
<rect width="24" height="24" fill="white" transform="translate(10.5001 10)"/>
</clipPath>
</defs>
</svg>
