<svg width="45" height="44" viewBox="0 0 45 44" fill="none" xmlns="http://www.w3.org/2000/svg">
<rect x="0.5" width="44" height="44" rx="22" fill="#C0C6B8"/>
<path d="M13.5 23.4121C13.5 23.1469 13.6054 22.8925 13.7929 22.705C13.9804 22.5175 14.2348 22.4121 14.5 22.4121H18.5C18.7652 22.4121 19.0196 22.5175 19.2071 22.705C19.3946 22.8925 19.5 23.1469 19.5 23.4121V29.4121C19.5 29.6773 19.3946 29.9317 19.2071 30.1192C19.0196 30.3068 18.7652 30.4121 18.5 30.4121H14.5C14.2348 30.4121 13.9804 30.3068 13.7929 30.1192C13.6054 29.9317 13.5 29.6773 13.5 29.4121V23.4121Z" stroke="black" stroke-width="1.5" stroke-linecap="round" stroke-linejoin="round"/>
<path d="M25.5 19.4121C25.5 19.1469 25.6054 18.8925 25.7929 18.705C25.9804 18.5175 26.2348 18.4121 26.5 18.4121H30.5C30.7652 18.4121 31.0196 18.5175 31.2071 18.705C31.3946 18.8925 31.5 19.1469 31.5 19.4121V29.4121C31.5 29.6773 31.3946 29.9317 31.2071 30.1192C31.0196 30.3068 30.7652 30.4121 30.5 30.4121H26.5C26.2348 30.4121 25.9804 30.3068 25.7929 30.1192C25.6054 29.9317 25.5 29.6773 25.5 29.4121V19.4121Z" stroke="black" stroke-width="1.5" stroke-linecap="round" stroke-linejoin="round"/>
<path d="M19.5 15.4121C19.5 15.1469 19.6054 14.8925 19.7929 14.705C19.9804 14.5175 20.2348 14.4121 20.5 14.4121H24.5C24.7652 14.4121 25.0196 14.5175 25.2071 14.705C25.3946 14.8925 25.5 15.1469 25.5 15.4121V29.4121C25.5 29.6773 25.3946 29.9317 25.2071 30.1192C25.0196 30.3068 24.7652 30.4121 24.5 30.4121H20.5C20.2348 30.4121 19.9804 30.3068 19.7929 30.1192C19.6054 29.9317 19.5 29.6773 19.5 29.4121V15.4121Z" stroke="black" stroke-width="1.5" stroke-linecap="round" stroke-linejoin="round"/>
<path d="M14.5 30.4121H28.5" stroke="black" stroke-width="1.5" stroke-linecap="round" stroke-linejoin="round"/>
</svg>
