<svg width="44" height="44" viewBox="0 0 44 44" fill="none" xmlns="http://www.w3.org/2000/svg">
<rect width="44" height="44" rx="22" fill="#C6AEA3"/>
<g clip-path="url(#clip0_199_39332)">
<path d="M27 31H17C16.4696 31 15.9609 30.7776 15.5858 30.3817C15.2107 29.9858 15 29.4488 15 28.8889V14.1111C15 13.5512 15.2107 13.0142 15.5858 12.6183C15.9609 12.2224 16.4696 12 17 12H22.586C22.8512 12.0001 23.1055 12.1113 23.293 12.3093L28.707 18.0241C28.8946 18.222 28.9999 18.4904 29 18.7703V28.8889C29 29.4488 28.7893 29.9858 28.4142 30.3817C28.0391 30.7776 27.5304 31 27 31Z" stroke="#202020" stroke-width="1.5" stroke-linecap="round" stroke-linejoin="round"/>
<path d="M19 22H25" stroke="#202020" stroke-width="1.5" stroke-linecap="round" stroke-linejoin="round"/>
<path d="M19 26H25" stroke="#202020" stroke-width="1.5" stroke-linecap="round" stroke-linejoin="round"/>
</g>
<defs>
<clipPath id="clip0_199_39332">
<rect width="24" height="24" fill="white" transform="translate(10 10)"/>
</clipPath>
</defs>
</svg>
