<svg width="106" height="55" viewBox="0 0 106 55" fill="none" xmlns="http://www.w3.org/2000/svg">
<path d="M1.29312 35V12.6H5.61312V35H1.29312ZM3.50112 35V30.904H16.1411V35H3.50112ZM24.4236 35.512C23.3143 35.512 22.3223 35.2987 21.4476 34.872C20.5943 34.4453 19.9223 33.848 19.4316 33.08C18.941 32.312 18.6956 31.4373 18.6956 30.456C18.6956 28.8773 19.229 27.6293 20.2956 26.712C21.3836 25.7733 22.9623 25.2187 25.0316 25.048L31.3356 24.504V27.96L25.5756 28.44C24.6583 28.5253 24.0076 28.7173 23.6236 29.016C23.261 29.3147 23.0796 29.6987 23.0796 30.168C23.0796 30.6373 23.3036 31.0213 23.7516 31.32C24.1996 31.5973 24.765 31.736 25.4476 31.736C26.1943 31.736 26.8663 31.544 27.4636 31.16C28.0823 30.776 28.573 30.2853 28.9356 29.688C29.2983 29.0693 29.4796 28.4187 29.4796 27.736V25.08C29.4796 24.1627 29.1596 23.4053 28.5196 22.808C27.8796 22.2107 27.069 21.912 26.0876 21.912C25.1703 21.912 24.4343 22.1467 23.8796 22.616C23.325 23.064 22.9943 23.5653 22.8876 24.12H22.5356L18.8876 23.352C19.2076 21.9013 19.997 20.6853 21.2556 19.704C22.5356 18.7227 24.1463 18.232 26.0876 18.232C28.4343 18.232 30.2796 18.8933 31.6236 20.216C32.989 21.5387 33.6716 23.4053 33.6716 25.816V35H29.9276V30.264H31.4956C31.2396 31.2027 30.7703 32.0773 30.0876 32.888C29.4263 33.6773 28.6156 34.3173 27.6556 34.808C26.6956 35.2773 25.6183 35.512 24.4236 35.512ZM41.5144 35L36.0744 19V18.744H40.3944L45.2584 34.552L45.7704 35H41.5144ZM41.5144 35L42.0264 34.552L46.8904 18.744H51.3064L50.6664 19L45.7704 35H41.5144ZM52.4264 35L47.5304 19L46.8904 18.744H51.3064L56.1704 34.552L56.6824 35H52.4264ZM52.4264 35L52.9384 34.552L57.8024 18.744H62.1224V19L56.6824 35H52.4264ZM74.7619 35.512C73.5245 35.512 72.4259 35.2667 71.4659 34.776C70.5059 34.264 69.7165 33.624 69.0979 32.856C68.5005 32.0667 68.0845 31.256 67.8499 30.424V23.384C68.0845 22.5307 68.5005 21.72 69.0979 20.952C69.7165 20.1627 70.5059 19.512 71.4659 19C72.4259 18.488 73.5245 18.232 74.7619 18.232C76.2552 18.232 77.5885 18.6053 78.7619 19.352C79.9565 20.0773 80.8952 21.0907 81.5779 22.392C82.2819 23.6933 82.6339 25.1973 82.6339 26.904C82.6339 28.5893 82.2819 30.0827 81.5779 31.384C80.8952 32.664 79.9565 33.6773 78.7619 34.424C77.5885 35.1493 76.2552 35.512 74.7619 35.512ZM65.4819 35V11.96L69.7059 11.448L69.8019 11.704V23.256L68.5219 26.872L69.4819 30.488V35H65.4819ZM73.9939 31.672C74.8685 31.672 75.6259 31.4693 76.2659 31.064C76.9059 30.6587 77.4072 30.0933 77.7699 29.368C78.1325 28.6427 78.3139 27.8107 78.3139 26.872C78.3139 25.912 78.1325 25.08 77.7699 24.376C77.4072 23.6507 76.9059 23.0853 76.2659 22.68C75.6259 22.2747 74.8685 22.072 73.9939 22.072C73.1405 22.072 72.3832 22.2747 71.7219 22.68C71.0819 23.0853 70.5805 23.6507 70.2179 24.376C69.8552 25.08 69.6739 25.912 69.6739 26.872C69.6739 27.8107 69.8552 28.6427 70.2179 29.368C70.5805 30.0933 71.0819 30.6587 71.7219 31.064C72.3832 31.4693 73.1405 31.672 73.9939 31.672ZM86.6256 35V18.744H90.9456V35H86.6256ZM88.8016 16.696C88.0763 16.696 87.4576 16.44 86.9456 15.928C86.4336 15.416 86.1776 14.7973 86.1776 14.072C86.1776 13.368 86.4336 12.76 86.9456 12.248C87.4576 11.736 88.0763 11.48 88.8016 11.48C89.5056 11.48 90.1136 11.736 90.6256 12.248C91.1376 12.76 91.3936 13.368 91.3936 14.072C91.3936 14.7973 91.1376 15.416 90.6256 15.928C90.1136 16.44 89.5056 16.696 88.8016 16.696ZM101.593 35C99.9075 35 98.5635 34.4773 97.5609 33.432C96.5795 32.3653 96.0889 30.9253 96.0889 29.112V14.648H100.409V28.632C100.409 29.4213 100.633 30.0507 101.081 30.52C101.55 30.968 102.18 31.192 102.969 31.192H104.505L104.665 31.544V35H101.593ZM93.3369 22.552V18.744H104.665V22.552H93.3369Z" fill="#202020"/>
<rect x="78" y="42" width="27" height="13" rx="3" fill="#DBF1C0"/>
<path d="M83.5681 51V50.344H85.2881C85.6295 50.344 85.8881 50.256 86.0641 50.08C86.2401 49.8987 86.3281 49.648 86.3281 49.328C86.3281 49.024 86.2348 48.7867 86.0481 48.616C85.8615 48.44 85.6081 48.352 85.2881 48.352H83.5681V47.712H85.1521C85.3388 47.712 85.5015 47.6773 85.6401 47.608C85.7788 47.5333 85.8855 47.4347 85.9601 47.312C86.0348 47.1893 86.0721 47.0453 86.0721 46.88C86.0721 46.6347 85.9921 46.4373 85.8321 46.288C85.6775 46.1333 85.4508 46.056 85.1521 46.056H83.5681V45.4H85.1521C85.6641 45.4 86.0641 45.5387 86.3521 45.816C86.6401 46.088 86.7841 46.4373 86.7841 46.864C86.7841 47.0507 86.7388 47.2293 86.6481 47.4C86.5575 47.5707 86.4375 47.7147 86.2881 47.832C86.1388 47.9493 85.9708 48.032 85.7841 48.08V47.888C86.0188 47.92 86.2295 48.0053 86.4161 48.144C86.6081 48.2827 86.7601 48.456 86.8721 48.664C86.9895 48.872 87.0481 49.0987 87.0481 49.344C87.0481 49.8453 86.8935 50.248 86.5841 50.552C86.2801 50.8507 85.8535 51 85.3041 51H83.5681ZM83.1921 51V45.4H83.8721V51H83.1921ZM87.8134 51V45.4H88.4934V51H87.8134ZM88.1654 51V50.344H91.3894V51H88.1654ZM88.1654 48.496V47.832H91.2134V48.496H88.1654ZM88.1654 46.056V45.4H91.3894V46.056H88.1654ZM93.5433 51V45.4H94.2313V51H93.5433ZM91.8073 46.056V45.4H95.9593V46.056H91.8073ZM99.6719 51L97.6479 45.568L97.5919 45.4H98.2719L100.4 50.936V51H99.6719ZM95.4639 51V50.936L97.5919 45.4H98.2719L98.2159 45.568L96.1919 51H95.4639ZM96.2879 49.56L96.5279 48.896H99.4159L99.6559 49.56H96.2879Z" fill="black"/>
</svg>
