<svg width="24" height="25" viewBox="0 0 24 25" fill="none" xmlns="http://www.w3.org/2000/svg">
<g clip-path="url(#clip0_175_7394)">
<path d="M14 3.77344V7.77344C14 8.03865 14.1054 8.29301 14.2929 8.48054C14.4804 8.66808 14.7348 8.77344 15 8.77344H19" stroke="white" stroke-width="1.5" stroke-linecap="round" stroke-linejoin="round"/>
<path d="M17 21.7734H7C6.46957 21.7734 5.96086 21.5627 5.58579 21.1877C5.21071 20.8126 5 20.3039 5 19.7734V5.77344C5 5.243 5.21071 4.7343 5.58579 4.35922C5.96086 3.98415 6.46957 3.77344 7 3.77344H14L19 8.77344V19.7734C19 20.3039 18.7893 20.8126 18.4142 21.1877C18.0391 21.5627 17.5304 21.7734 17 21.7734Z" stroke="white" stroke-width="1.5" stroke-linecap="round" stroke-linejoin="round"/>
<path d="M9 12.7734L10.333 17.7734L12 13.7734L13.667 17.7734L15 12.7734" stroke="white" stroke-width="1.5" stroke-linecap="round" stroke-linejoin="round"/>
</g>
<defs>
<clipPath id="clip0_175_7394">
<rect width="24" height="24" fill="white" transform="translate(0 0.773438)"/>
</clipPath>
</defs>
</svg>
