<svg width="144" height="45" viewBox="0 0 144 45" fill="none" xmlns="http://www.w3.org/2000/svg">
<g filter="url(#filter0_ddi_7059_98648)">
<path d="M4.81119 3.08398C4.36318 3.08398 4 3.42153 4 3.83791V29.3601C4 30.4575 4.8923 31.3457 5.98969 31.3407L9.20416 31.3259C10.3016 31.3208 11.1939 32.209 11.1939 33.3064V37.1034C11.1939 38.1972 12.0806 39.084 13.1744 39.084L32.1888 39.084C32.6368 39.084 33 38.7464 33 38.3301V27.1193C33 26.7019 32.643 26.3837 32.2274 26.3656C32.032 26.3571 31.8367 26.4029 31.6411 26.4029H19.3652C18.2714 26.4029 17.3846 25.5162 17.3846 24.4223V3.83791C17.3846 3.42153 17.0214 3.08398 16.5734 3.08398H4.81119Z" fill="url(#paint0_linear_7059_98648)"/>
<path d="M4.16505 3.83791C4.16505 3.52385 4.44275 3.24903 4.81119 3.24903H16.5734C16.9419 3.24903 17.2196 3.52385 17.2196 3.83791V24.4223C17.2196 25.6073 18.1802 26.5679 19.3652 26.5679H31.6411C31.7399 26.5679 31.8381 26.5574 31.9261 26.5479C31.9348 26.547 31.9433 26.5461 31.9517 26.5452C32.0498 26.5348 32.1363 26.5269 32.2202 26.5305C32.5625 26.5454 32.835 26.8045 32.835 27.1193V38.3301C32.835 38.6441 32.5573 38.9189 32.1888 38.9189L13.1744 38.9189C12.1717 38.9189 11.3589 38.1061 11.3589 37.1034V33.3064C11.3589 32.1176 10.3922 31.1554 9.20341 31.1608L5.98893 31.1756C4.98299 31.1802 4.16505 30.3661 4.16505 29.3601V3.83791Z" stroke="url(#paint1_linear_7059_98648)" stroke-width="0.330097"/>
</g>
<path d="M48.4823 30.1637L48.4434 7.76374L51.6434 7.75819L51.6823 30.1582L48.4823 30.1637ZM50.1143 30.1609L50.109 27.0889L62.7169 27.067L62.7223 30.139L50.1143 30.1609ZM70.149 30.5741C69.061 30.576 68.0793 30.3644 67.2039 29.9392C66.3498 29.5141 65.6768 28.9286 65.1849 28.1827C64.6929 27.4156 64.446 26.5414 64.4443 25.56C64.4418 24.088 64.9517 22.9138 65.9742 22.0374C66.9967 21.1396 68.4464 20.6144 70.3235 20.4618L76.5306 19.9391L76.5354 22.6911L70.8722 23.1489C69.7843 23.2361 68.9847 23.4721 68.4734 23.857C67.962 24.2419 67.707 24.765 67.7081 25.4264C67.7092 26.0664 67.9875 26.5992 68.5429 27.0249C69.0982 27.4293 69.8026 27.6307 70.6559 27.6293C71.5519 27.6277 72.3622 27.413 73.0868 26.985C73.8327 26.5571 74.4184 25.9907 74.8439 25.286C75.2693 24.5599 75.4813 23.7809 75.4798 22.9489L75.4753 20.3249C75.4733 19.1942 75.109 18.2669 74.3824 17.5428C73.6772 16.8187 72.7379 16.4576 71.5646 16.4597C70.5832 16.4614 69.7623 16.6975 69.1018 17.1679C68.4626 17.6384 68.037 18.2578 67.825 19.0262L67.473 19.0268L64.7197 18.2635C65.1439 16.8335 65.9525 15.6907 67.1457 14.8353C68.3389 13.9799 69.8102 13.5507 71.5595 13.5477C73.7995 13.5438 75.5393 14.2021 76.7789 15.5226C78.0185 16.8218 78.6404 18.6554 78.6445 21.0234L78.6602 30.1114L75.7162 30.1165L75.7081 25.4445L76.8607 25.7945C76.6063 26.6696 76.149 27.4704 75.4889 28.1969C74.8502 28.9233 74.0725 29.5007 73.1559 29.9289C72.2393 30.3572 71.237 30.5723 70.149 30.5741ZM85.4217 30.0997L80.1143 14.2688L80.1138 14.0128L83.3138 14.0073L87.8508 28.4314L88.4937 30.0943L85.4217 30.0997ZM85.4217 30.0997L86.1548 28.4344L90.8018 13.9943L93.9378 13.9889L93.6502 14.2454L88.4937 30.0943L85.4217 30.0997ZM96.3017 30.0808L91.0903 14.2498L90.8018 13.9943L93.9378 13.9889L98.6348 28.4127L99.3737 30.0755L96.3017 30.0808ZM96.3017 30.0808L96.9388 28.4157L101.426 13.9759L104.626 13.9703L104.626 14.2263L99.3737 30.0755L96.3017 30.0808ZM108.909 30.0589L108.904 27.0829L115.72 27.0711C117.022 27.0689 118.002 26.7365 118.663 26.074C119.344 25.3902 119.684 24.4616 119.682 23.2882C119.68 22.1362 119.316 21.2409 118.589 20.6021C117.884 19.942 116.923 19.613 115.707 19.6151L108.891 19.6269L108.886 16.7469L115.19 16.736C115.894 16.7348 116.502 16.6057 117.014 16.3489C117.547 16.0706 117.951 15.7072 118.228 15.2587C118.526 14.7889 118.674 14.2553 118.673 13.658C118.671 12.7406 118.361 12.0052 117.741 11.4516C117.143 10.898 116.289 10.6221 115.18 10.624L108.876 10.635L108.871 7.65896L115.175 7.64803C117.265 7.6444 118.898 8.19624 120.073 9.30354C121.249 10.3895 121.838 11.7965 121.841 13.5245C121.842 14.2925 121.662 15.0181 121.301 15.7014C120.939 16.3847 120.449 16.9616 119.832 17.432C119.214 17.9024 118.521 18.2129 117.753 18.3636L117.752 17.5956C118.712 17.6792 119.577 17.9977 120.346 18.5511C121.136 19.1044 121.756 19.7966 122.205 20.6279C122.676 21.459 122.912 22.3866 122.914 23.4106C122.917 25.416 122.302 27.0277 121.066 28.2458C119.831 29.4427 118.115 30.043 115.917 30.0468L108.909 30.0589ZM107.245 30.0618L107.207 7.66184L110.343 7.65641L110.381 30.0564L107.245 30.0618ZM125.919 30.0294L125.892 13.9335L129.091 13.9279L129.119 30.0239L125.919 30.0294ZM127.487 11.2427C126.89 11.2437 126.388 11.0419 125.982 10.6373C125.576 10.2113 125.372 9.71035 125.371 9.13435C125.37 8.53702 125.572 8.03533 125.977 7.6293C126.381 7.22326 126.882 7.01973 127.48 7.01869C128.056 7.01769 128.547 7.21951 128.953 7.62414C129.38 8.02873 129.594 8.52969 129.595 9.12702C129.596 9.70302 129.384 10.2047 128.958 10.6321C128.553 11.0382 128.063 11.2417 127.487 11.2427ZM138.28 30.008C136.808 30.0106 135.612 29.5433 134.693 28.6062C133.796 27.6691 133.346 26.4005 133.343 24.8006L133.317 9.66457L136.517 9.65902L136.542 24.507C136.544 25.3817 136.748 26.032 137.154 26.4579C137.581 26.8625 138.232 27.0641 139.107 27.0626L140.899 27.0595L141.059 27.4112L141.064 30.0032L138.28 30.008ZM130.577 16.8693L130.572 13.9253L141.036 13.9072L141.041 16.8512L130.577 16.8693Z" fill="white"/>
<defs>
<filter id="filter0_ddi_7059_98648" x="0.203883" y="0.608256" width="36.5922" height="43.5922" filterUnits="userSpaceOnUse" color-interpolation-filters="sRGB">
<feFlood flood-opacity="0" result="BackgroundImageFix"/>
<feColorMatrix in="SourceAlpha" type="matrix" values="0 0 0 0 0 0 0 0 0 0 0 0 0 0 0 0 0 0 127 0" result="hardAlpha"/>
<feMorphology radius="0.660194" operator="erode" in="SourceAlpha" result="effect1_dropShadow_7059_98648"/>
<feOffset dy="1.32039"/>
<feGaussianBlur stdDeviation="1.32039"/>
<feComposite in2="hardAlpha" operator="out"/>
<feColorMatrix type="matrix" values="0 0 0 0 0.0705882 0 0 0 0 0.0705882 0 0 0 0 0.0705882 0 0 0 0.2 0"/>
<feBlend mode="normal" in2="BackgroundImageFix" result="effect1_dropShadow_7059_98648"/>
<feColorMatrix in="SourceAlpha" type="matrix" values="0 0 0 0 0 0 0 0 0 0 0 0 0 0 0 0 0 0 127 0" result="hardAlpha"/>
<feMorphology radius="0.495146" operator="dilate" in="SourceAlpha" result="effect2_dropShadow_7059_98648"/>
<feOffset dy="1.32039"/>
<feGaussianBlur stdDeviation="1.65049"/>
<feComposite in2="hardAlpha" operator="out"/>
<feColorMatrix type="matrix" values="0 0 0 0 0.996375 0 0 0 0 0.323975 0 0 0 0 0.727415 0 0 0 0.25 0"/>
<feBlend mode="normal" in2="effect1_dropShadow_7059_98648" result="effect2_dropShadow_7059_98648"/>
<feBlend mode="normal" in="SourceGraphic" in2="effect2_dropShadow_7059_98648" result="shape"/>
<feColorMatrix in="SourceAlpha" type="matrix" values="0 0 0 0 0 0 0 0 0 0 0 0 0 0 0 0 0 0 127 0" result="hardAlpha"/>
<feOffset dy="0.660194"/>
<feGaussianBlur stdDeviation="0.330097"/>
<feComposite in2="hardAlpha" operator="arithmetic" k2="-1" k3="1"/>
<feColorMatrix type="matrix" values="0 0 0 0 1 0 0 0 0 1 0 0 0 0 1 0 0 0 0.05 0"/>
<feBlend mode="normal" in2="shape" result="effect3_innerShadow_7059_98648"/>
</filter>
<linearGradient id="paint0_linear_7059_98648" x1="-1" y1="3.08399" x2="28" y2="42.584" gradientUnits="userSpaceOnUse">
<stop stop-color="#8A30FF"/>
<stop offset="0.525" stop-color="#F842B2"/>
<stop offset="1" stop-color="#F85B42"/>
</linearGradient>
<linearGradient id="paint1_linear_7059_98648" x1="18.5" y1="3.08398" x2="36.6117" y2="39.9135" gradientUnits="userSpaceOnUse">
<stop stop-color="white" stop-opacity="0.4"/>
<stop offset="0.4" stop-color="white" stop-opacity="0.01"/>
<stop offset="0.6" stop-color="white" stop-opacity="0.01"/>
<stop offset="1" stop-color="white" stop-opacity="0.1"/>
</linearGradient>
</defs>
</svg>
