<svg width="32" height="33" viewBox="0 0 32 33" fill="none" xmlns="http://www.w3.org/2000/svg">
<path d="M13.3385 28.7734H22.6719C23.3791 28.7734 24.0574 28.4925 24.5575 27.9924C25.0576 27.4923 25.3385 26.814 25.3385 26.1068V13.3254C25.3385 12.9718 25.1979 12.6328 24.9479 12.3828L17.7292 5.1641C17.4792 4.91404 17.1401 4.77351 16.7865 4.77344H9.33854C8.6313 4.77344 7.95302 5.05439 7.45292 5.55449C6.95283 6.05458 6.67188 6.73286 6.67188 7.4401V22.1068" stroke="#696969" stroke-width="1.5" stroke-linecap="round" stroke-linejoin="round"/>
<path d="M8 27.4379L13.172 22.2659M13.172 22.2659C13.5423 22.6423 13.9834 22.9418 14.47 23.1469C14.9566 23.352 15.4789 23.4587 16.0069 23.4609C16.535 23.4631 17.0582 23.3608 17.5465 23.1597C18.0347 22.9587 18.4784 22.663 18.8518 22.2897C19.2252 21.9164 19.521 21.4728 19.7221 20.9846C19.9233 20.4964 20.0258 19.9731 20.0237 19.4451C20.0216 18.9171 19.915 18.3947 19.71 17.9081C19.505 17.4215 19.2057 16.9803 18.8293 16.6099C18.0772 15.8698 17.0631 15.4568 16.0079 15.461C14.9527 15.4651 13.9418 15.8861 13.1956 16.6322C12.4494 17.3782 12.0282 18.389 12.0237 19.4442C12.0193 20.4994 12.432 21.5136 13.172 22.2659Z" stroke="#696969" stroke-opacity="0.5" stroke-width="1.5" stroke-linecap="round" stroke-linejoin="round"/>
</svg>
