<svg width="32" height="32" viewBox="0 0 32 32" fill="none" xmlns="http://www.w3.org/2000/svg">
<path d="M13.3385 28H22.6719C23.3791 28 24.0574 27.719 24.5575 27.219C25.0576 26.7189 25.3385 26.0406 25.3385 25.3333V12.552C25.3385 12.1984 25.1979 11.8593 24.9479 11.6093L17.7292 4.39067C17.4792 4.1406 17.1401 4.00008 16.7865 4H9.33854C8.6313 4 7.95302 4.28095 7.45292 4.78105C6.95283 5.28115 6.67188 5.95942 6.67188 6.66667V21.3333" stroke="white" stroke-width="1.5" stroke-linecap="round" stroke-linejoin="round"/>
<path d="M8 26.6667L13.172 21.4947M13.172 21.4947C13.5423 21.8712 13.9834 22.1706 14.47 22.3757C14.9566 22.5808 15.4789 22.6875 16.0069 22.6897C16.535 22.692 17.0582 22.5896 17.5465 22.3886C18.0347 22.1876 18.4784 21.8919 18.8518 21.5185C19.2252 21.1452 19.521 20.7016 19.7221 20.2134C19.9233 19.7252 20.0258 19.202 20.0237 18.674C20.0216 18.1459 19.915 17.6236 19.71 17.1369C19.505 16.6503 19.2057 16.2091 18.8293 15.8387C18.0772 15.0986 17.0631 14.6856 16.0079 14.6898C14.9527 14.694 13.9418 15.1149 13.1956 15.861C12.4494 16.6071 12.0282 17.6178 12.0237 18.673C12.0193 19.7282 12.432 20.7425 13.172 21.4947Z" stroke="white" stroke-opacity="0.5" stroke-width="1.5" stroke-linecap="round" stroke-linejoin="round"/>
</svg>
