<svg width="72" height="72" viewBox="0 0 72 72" fill="none" xmlns="http://www.w3.org/2000/svg">
<rect width="72" height="72" rx="12" fill="url(#paint0_linear_3513_401)" fill-opacity="0.67"/>
<rect x="0.75" y="0.75" width="70.5" height="70.5" rx="11.25" stroke="url(#paint1_linear_3513_401)" stroke-opacity="0.15" stroke-width="1.5"/>
<rect x="14" y="14" width="44" height="44" rx="22" fill="#F8F8F8" fill-opacity="0.21"/>
<path d="M37.5745 33.077C37.7761 33.4388 38.2329 33.5688 38.5947 33.3672C38.9566 33.1656 39.0865 32.7088 38.8849 32.347L37.5745 33.077ZM36 36.0123L35.7592 36.7226L35.7592 36.7226L36 36.0123ZM36 30.7501C35.1676 30.7501 34.3588 30.9371 33.7425 31.4231C33.0985 31.9308 32.7631 32.6872 32.7631 33.6008H34.2631C34.2631 33.0787 34.4382 32.7847 34.6712 32.601C34.9318 32.3955 35.3665 32.2501 36 32.2501V30.7501ZM38.8849 32.347C38.3496 31.3861 37.318 30.7501 36 30.7501V32.2501C36.8038 32.2501 37.3183 32.617 37.5745 33.077L38.8849 32.347ZM32.7631 33.6008C32.7631 34.6646 33.1954 35.387 33.8541 35.8722C34.4399 36.3036 35.1992 36.5328 35.7592 36.7226L36.2408 35.302C35.5804 35.0782 35.0962 34.924 34.7437 34.6644C34.4641 34.4585 34.2631 34.182 34.2631 33.6008H32.7631ZM36 41.2745C36.8324 41.2745 37.6412 41.0875 38.2575 40.6016C38.9015 40.0939 39.2369 39.3375 39.2369 38.4238H37.7369C37.7369 38.946 37.5618 39.2399 37.3288 39.4236C37.0682 39.6291 36.6335 39.7745 36 39.7745V41.2745ZM33.1151 39.6777C33.6504 40.6386 34.682 41.2745 36 41.2745V39.7745C35.1962 39.7745 34.6817 39.4077 34.4255 38.9477L33.1151 39.6777ZM39.2369 38.4238C39.2369 37.36 38.8046 36.6376 38.1459 36.1525C37.5601 35.721 36.8008 35.4919 36.2408 35.302L35.7592 36.7226C36.4196 36.9465 36.9038 37.1006 37.2563 37.3602C37.5359 37.5662 37.7369 37.8426 37.7369 38.4238H39.2369ZM36.75 31.5001V29.5H35.25V31.5001H36.75ZM35.25 40.5245V42.5H36.75V40.5245H35.25ZM44.5 36C44.5 40.6944 40.6944 44.5 36 44.5V46C41.5228 46 46 41.5228 46 36H44.5ZM36 44.5C31.3056 44.5 27.5 40.6944 27.5 36H26C26 41.5228 30.4772 46 36 46V44.5ZM27.5 36C27.5 31.3056 31.3056 27.5 36 27.5V26C30.4772 26 26 30.4772 26 36H27.5ZM36 27.5C40.6944 27.5 44.5 31.3056 44.5 36H46C46 30.4772 41.5228 26 36 26V27.5Z" fill="#F8F8F8"/>
<defs>
<linearGradient id="paint0_linear_3513_401" x1="9" y1="6" x2="36" y2="72" gradientUnits="userSpaceOnUse">
<stop stop-color="#1c1c1c"/>
<stop offset="0.5" stop-color="#1c1c1c"/>
<stop offset="1" stop-color="#1c1c1c"/>
</linearGradient>
<linearGradient id="paint1_linear_3513_401" x1="19" y1="3.01878e-07" x2="65.0154" y2="73.2438" gradientUnits="userSpaceOnUse">
<stop stop-color="white" stop-opacity="0.62"/>
<stop offset="0.4" stop-color="white" stop-opacity="0.01"/>
<stop offset="0.6" stop-color="white" stop-opacity="0.01"/>
<stop offset="1" stop-color="white" stop-opacity="0.1"/>
</linearGradient>
</defs>
</svg>
