<svg width="24" height="24" viewBox="0 0 24 24" fill="none" xmlns="http://www.w3.org/2000/svg">
<path d="M20.1538 10H11.8462C10.8266 10 10 10.8266 10 11.8462V20.1538C10 21.1734 10.8266 22 11.8462 22H20.1538C21.1734 22 22 21.1734 22 20.1538V11.8462C22 10.8266 21.1734 10 20.1538 10Z" stroke="white" stroke-width="1.5" stroke-linecap="round" stroke-linejoin="round"/>
<path d="M5.76923 15H4.84615C4.35652 15 3.88695 14.8055 3.54073 14.4593C3.1945 14.1131 3 13.6435 3 13.1538V4.84615C3 4.35652 3.1945 3.88695 3.54073 3.54073C3.88695 3.1945 4.35652 3 4.84615 3H13.1538C13.6435 3 14.1131 3.1945 14.4593 3.54073C14.8055 3.88695 15 4.35652 15 4.84615V5.76923" stroke="#989898" stroke-width="1.5" stroke-linecap="round" stroke-linejoin="round"/>
</svg>
