<svg width="32" height="33" viewBox="0 0 32 33" fill="none" xmlns="http://www.w3.org/2000/svg">
<path d="M22.6719 28.7734H9.33854C8.6313 28.7734 7.95302 28.4925 7.45292 27.9924C6.95283 27.4923 6.67188 26.814 6.67188 26.1068V7.4401C6.67188 6.73286 6.95283 6.05458 7.45292 5.55449C7.95302 5.05439 8.6313 4.77344 9.33854 4.77344H16.7865C17.1401 4.77351 17.4792 4.91404 17.7292 5.1641L24.9479 12.3828C25.1979 12.6328 25.3385 12.9718 25.3385 13.3254V26.1068C25.3385 26.814 25.0576 27.4923 24.5575 27.9924C24.0574 28.4925 23.3791 28.7734 22.6719 28.7734Z" stroke="#696969" stroke-width="1.5" stroke-linecap="round" stroke-linejoin="round"/>
<path d="M12 16.7734H20" stroke="#696969" stroke-width="1.5" stroke-linecap="round" stroke-linejoin="round"/>
<path d="M12 22.1055H20" stroke="#696969" stroke-width="1.5" stroke-linecap="round" stroke-linejoin="round"/>
</svg>
