<svg width="33" height="32" viewBox="0 0 33 32" fill="none" xmlns="http://www.w3.org/2000/svg">
<path d="M23.0015 27.9999H9.66813C8.96089 27.9999 8.28261 27.719 7.78251 27.2189C7.28242 26.7188 7.00146 26.0405 7.00146 25.3333V6.66661C7.00146 5.95936 7.28242 5.28108 7.78251 4.78099C8.28261 4.28089 8.96089 3.99994 9.66813 3.99994H17.1161C17.4697 4.00001 17.8088 4.14054 18.0588 4.39061L25.2775 11.6093C25.5275 11.8593 25.6681 12.1983 25.6681 12.5519V25.3333C25.6681 26.0405 25.3872 26.7188 24.8871 27.2189C24.387 27.719 23.7087 27.9999 23.0015 27.9999Z" stroke="white" stroke-width="1.5" stroke-linecap="round" stroke-linejoin="round"/>
<path d="M12.3335 15.9999H20.3335" stroke="white" stroke-opacity="0.5" stroke-width="1.5" stroke-linecap="round" stroke-linejoin="round"/>
<path d="M12.3335 21.3333H20.3335" stroke="white" stroke-opacity="0.5" stroke-width="1.5" stroke-linecap="round" stroke-linejoin="round"/>
</svg>
