<svg width="27" height="33" viewBox="0 0 27 33" fill="none" xmlns="http://www.w3.org/2000/svg">
<path d="M0.860224 1.31536C0.860224 1.15151 1.01083 0.977411 1.24942 0.977411H11.7762C12.0148 0.977411 12.1654 1.15151 12.1654 1.31536V10.1756C12.1654 16.6216 17.3909 21.847 23.8369 21.847H24.195C24.3528 21.847 24.5307 21.8395 24.7058 21.8321C24.7835 21.8288 24.8607 21.8256 24.9353 21.823C25.1883 21.8143 25.4258 21.8126 25.6306 21.8349C25.8415 21.8578 25.9763 21.9023 26.0518 21.9551C26.1046 21.992 26.1406 22.0381 26.1406 22.1514V32.1846C26.1406 32.3485 25.99 32.5226 25.7514 32.5226L10.4294 32.5226C8.70024 32.5226 7.29847 31.1208 7.29847 29.3917V29.1271C7.29847 27.165 5.70309 25.577 3.74101 25.586C2.15214 25.5933 0.860224 24.3073 0.860224 22.7184V1.31536Z" stroke="#A5A3A3" stroke-width="0.673573"/>
</svg>
