<svg width="156" height="52" viewBox="0 0 156 52" fill="none" xmlns="http://www.w3.org/2000/svg">
<path d="M1.29312 35V12.6H5.61312V35H1.29312ZM3.50112 35V30.904H16.1411V35H3.50112ZM24.4236 35.512C23.3143 35.512 22.3223 35.2987 21.4476 34.872C20.5943 34.4453 19.9223 33.848 19.4316 33.08C18.941 32.312 18.6956 31.4373 18.6956 30.456C18.6956 28.8773 19.229 27.6293 20.2956 26.712C21.3836 25.7733 22.9623 25.2187 25.0316 25.048L31.3356 24.504V27.96L25.5756 28.44C24.6583 28.5253 24.0076 28.7173 23.6236 29.016C23.261 29.3147 23.0796 29.6987 23.0796 30.168C23.0796 30.6373 23.3036 31.0213 23.7516 31.32C24.1996 31.5973 24.765 31.736 25.4476 31.736C26.1943 31.736 26.8663 31.544 27.4636 31.16C28.0823 30.776 28.573 30.2853 28.9356 29.688C29.2983 29.0693 29.4796 28.4187 29.4796 27.736V25.08C29.4796 24.1627 29.1596 23.4053 28.5196 22.808C27.8796 22.2107 27.069 21.912 26.0876 21.912C25.1703 21.912 24.4343 22.1467 23.8796 22.616C23.325 23.064 22.9943 23.5653 22.8876 24.12H22.5356L18.8876 23.352C19.2076 21.9013 19.997 20.6853 21.2556 19.704C22.5356 18.7227 24.1463 18.232 26.0876 18.232C28.4343 18.232 30.2796 18.8933 31.6236 20.216C32.989 21.5387 33.6716 23.4053 33.6716 25.816V35H29.9276V30.264H31.4956C31.2396 31.2027 30.7703 32.0773 30.0876 32.888C29.4263 33.6773 28.6156 34.3173 27.6556 34.808C26.6956 35.2773 25.6183 35.512 24.4236 35.512ZM41.5144 35L36.0744 19V18.744H40.3944L45.2584 34.552L45.7704 35H41.5144ZM41.5144 35L42.0264 34.552L46.8904 18.744H51.3064L50.6664 19L45.7704 35H41.5144ZM52.4264 35L47.5304 19L46.8904 18.744H51.3064L56.1704 34.552L56.6824 35H52.4264ZM52.4264 35L52.9384 34.552L57.8024 18.744H62.1224V19L56.6824 35H52.4264ZM74.7619 35.512C73.5245 35.512 72.4259 35.2667 71.4659 34.776C70.5059 34.264 69.7165 33.624 69.0979 32.856C68.5005 32.0667 68.0845 31.256 67.8499 30.424V23.384C68.0845 22.5307 68.5005 21.72 69.0979 20.952C69.7165 20.1627 70.5059 19.512 71.4659 19C72.4259 18.488 73.5245 18.232 74.7619 18.232C76.2552 18.232 77.5885 18.6053 78.7619 19.352C79.9565 20.0773 80.8952 21.0907 81.5779 22.392C82.2819 23.6933 82.6339 25.1973 82.6339 26.904C82.6339 28.5893 82.2819 30.0827 81.5779 31.384C80.8952 32.664 79.9565 33.6773 78.7619 34.424C77.5885 35.1493 76.2552 35.512 74.7619 35.512ZM65.4819 35V11.96L69.7059 11.448L69.8019 11.704V23.256L68.5219 26.872L69.4819 30.488V35H65.4819ZM73.9939 31.672C74.8685 31.672 75.6259 31.4693 76.2659 31.064C76.9059 30.6587 77.4072 30.0933 77.7699 29.368C78.1325 28.6427 78.3139 27.8107 78.3139 26.872C78.3139 25.912 78.1325 25.08 77.7699 24.376C77.4072 23.6507 76.9059 23.0853 76.2659 22.68C75.6259 22.2747 74.8685 22.072 73.9939 22.072C73.1405 22.072 72.3832 22.2747 71.7219 22.68C71.0819 23.0853 70.5805 23.6507 70.2179 24.376C69.8552 25.08 69.6739 25.912 69.6739 26.872C69.6739 27.8107 69.8552 28.6427 70.2179 29.368C70.5805 30.0933 71.0819 30.6587 71.7219 31.064C72.3832 31.4693 73.1405 31.672 73.9939 31.672ZM86.6256 35V18.744H90.9456V35H86.6256ZM88.8016 16.696C88.0763 16.696 87.4576 16.44 86.9456 15.928C86.4336 15.416 86.1776 14.7973 86.1776 14.072C86.1776 13.368 86.4336 12.76 86.9456 12.248C87.4576 11.736 88.0763 11.48 88.8016 11.48C89.5056 11.48 90.1136 11.736 90.6256 12.248C91.1376 12.76 91.3936 13.368 91.3936 14.072C91.3936 14.7973 91.1376 15.416 90.6256 15.928C90.1136 16.44 89.5056 16.696 88.8016 16.696ZM101.593 35C99.9075 35 98.5635 34.4773 97.5609 33.432C96.5795 32.3653 96.0889 30.9253 96.0889 29.112V14.648H100.409V28.632C100.409 29.4213 100.633 30.0507 101.081 30.52C101.55 30.968 102.18 31.192 102.969 31.192H104.505L104.665 31.544V35H101.593ZM93.3369 22.552V18.744H104.665V22.552H93.3369Z" fill="white"/>
<rect x="115" width="41" height="21.0408" rx="1" fill="white"/>
<path d="M125.25 14.0205V13.2005H127.4C127.827 13.2005 128.15 13.0905 128.37 12.8705C128.59 12.6438 128.7 12.3305 128.7 11.9305C128.7 11.5505 128.583 11.2538 128.35 11.0405C128.117 10.8205 127.8 10.7105 127.4 10.7105H125.25V9.91051H127.23C127.463 9.91051 127.667 9.86717 127.84 9.78051C128.013 9.68717 128.147 9.56384 128.24 9.41051C128.333 9.25717 128.38 9.07717 128.38 8.87051C128.38 8.56384 128.28 8.31717 128.08 8.13051C127.887 7.93717 127.603 7.84051 127.23 7.84051H125.25V7.02051H127.23C127.87 7.02051 128.37 7.19384 128.73 7.54051C129.09 7.88051 129.27 8.31717 129.27 8.85051C129.27 9.08384 129.213 9.30717 129.1 9.52051C128.987 9.73384 128.837 9.91384 128.65 10.0605C128.463 10.2072 128.253 10.3105 128.02 10.3705V10.1305C128.313 10.1705 128.577 10.2772 128.81 10.4505C129.05 10.6238 129.24 10.8405 129.38 11.1005C129.527 11.3605 129.6 11.6438 129.6 11.9505C129.6 12.5772 129.407 13.0805 129.02 13.4605C128.64 13.8338 128.107 14.0205 127.42 14.0205H125.25ZM124.78 14.0205V7.02051H125.63V14.0205H124.78ZM130.557 14.0205V7.02051H131.407V14.0205H130.557ZM130.997 14.0205V13.2005H135.027V14.0205H130.997ZM130.997 10.8905V10.0605H134.807V10.8905H130.997ZM130.997 7.84051V7.02051H135.027V7.84051H130.997ZM137.719 14.0205V7.02051H138.579V14.0205H137.719ZM135.549 7.84051V7.02051H140.739V7.84051H135.549ZM145.38 14.0205L142.85 7.23051L142.78 7.02051H143.63L146.29 13.9405V14.0205H145.38ZM140.12 14.0205V13.9405L142.78 7.02051H143.63L143.56 7.23051L141.03 14.0205H140.12ZM141.15 12.2205L141.45 11.3905H145.06L145.36 12.2205H141.15Z" fill="black"/>
</svg>
