<svg width="258" height="96" viewBox="0 0 258 96" fill="none" xmlns="http://www.w3.org/2000/svg">
<g filter="url(#filter0_d_7059_98642)">
<path d="M23.8269 22.1094C23.1825 22.1094 22.6602 22.5949 22.6602 23.1938V57.5923C22.6602 60.4458 24.9804 62.7554 27.8339 62.7422C30.6874 62.7291 33.0076 65.0387 33.0076 67.8922V68.3174C33.0076 71.3954 35.5028 73.8906 38.5808 73.8906L63.206 73.8906C63.8504 73.8906 64.3728 73.4051 64.3728 72.8062V56.681C64.3728 55.2635 62.1221 55.6506 60.7045 55.6506H60.1289C50.0681 55.6506 41.9122 47.4946 41.9122 37.4338V23.1938C41.9122 22.5949 41.3898 22.1094 40.7454 22.1094H23.8269Z" fill="url(#paint0_linear_7059_98642)" shape-rendering="crispEdges"/>
<path d="M23.2014 23.1938C23.2014 22.9305 23.4435 22.6507 23.8269 22.6507H40.7454C41.1288 22.6507 41.3709 22.9305 41.3709 23.1938V37.4338C41.3709 47.7936 49.7692 56.1918 60.1289 56.1918H60.7045C60.9581 56.1918 61.2441 56.1797 61.5255 56.1678C61.6504 56.1626 61.7745 56.1573 61.8944 56.1532C62.301 56.1392 62.6826 56.1365 63.0118 56.1723C63.3508 56.2092 63.5675 56.2807 63.6888 56.3656C63.7736 56.4249 63.8316 56.499 63.8316 56.681V72.8062C63.8316 73.0695 63.5895 73.3493 63.206 73.3493L38.5808 73.3493C35.8017 73.3493 33.5488 71.0965 33.5488 68.3174V67.8922C33.5488 64.7388 30.9848 62.1865 27.8314 62.201C25.2778 62.2127 23.2014 60.1459 23.2014 57.5923V23.1938Z" stroke="url(#paint1_linear_7059_98642)" stroke-width="1.08255" shape-rendering="crispEdges"/>
</g>
<path d="M90.0804 66.1279L90.018 30.1272L95.161 30.1183L95.2234 66.119L90.0804 66.1279ZM92.7034 66.1234L92.6948 61.1861L112.958 61.151L112.967 66.0882L92.7034 66.1234ZM124.903 66.7876C123.154 66.7906 121.576 66.4505 120.169 65.7672C118.797 65.0838 117.715 64.1428 116.924 62.9442C116.134 61.7112 115.737 60.3062 115.734 58.729C115.73 56.3632 116.55 54.4761 118.193 53.0675C119.836 51.6246 122.166 50.7805 125.183 50.5353L135.159 49.6951L135.167 54.1181L126.065 54.8538C124.317 54.994 123.031 55.3734 122.21 55.992C121.388 56.6106 120.978 57.4513 120.98 58.5142C120.982 59.5428 121.429 60.3992 122.321 61.0833C123.214 61.7332 124.346 62.057 125.717 62.0546C127.157 62.0521 128.46 61.707 129.624 61.0192C130.823 60.3314 131.764 59.4212 132.448 58.2886C133.132 57.1216 133.473 55.8696 133.47 54.5324L133.463 50.3152C133.46 48.498 132.874 47.0076 131.707 45.8439C130.573 44.6801 129.064 44.0998 127.178 44.1031C125.601 44.1058 124.281 44.4853 123.22 45.2414C122.192 45.9975 121.508 46.993 121.168 48.2279L120.602 48.2289L116.177 47.0022C116.859 44.7039 118.158 42.8673 120.076 41.4925C121.994 40.1177 124.358 39.4279 127.17 39.423C130.77 39.4168 133.566 40.4748 135.558 42.5971C137.55 44.6851 138.55 47.632 138.556 51.4378L138.582 66.0438L133.85 66.052L133.837 58.5433L135.69 59.1058C135.281 60.5123 134.546 61.7993 133.485 62.9669C132.458 64.1344 131.208 65.0623 129.735 65.7506C128.262 66.4389 126.651 66.7845 124.903 66.7876ZM149.449 66.025L140.919 40.582L140.918 40.1706L146.061 40.1617L153.353 63.3439L154.386 66.0164L149.449 66.025ZM149.449 66.025L150.627 63.3486L158.095 40.1408L163.136 40.1321L162.673 40.5443L154.386 66.0164L149.449 66.025ZM166.935 65.9947L158.559 40.5515L158.095 40.1408L163.136 40.1321L170.684 63.3138L171.872 65.9861L166.935 65.9947ZM166.935 65.9947L167.959 63.3185L175.17 40.1112L180.313 40.1023L180.314 40.5137L171.872 65.9861L166.935 65.9947ZM187.198 65.9595L187.189 61.1766L198.144 61.1576C200.235 61.154 201.812 60.6198 202.873 59.5551C203.968 58.456 204.514 56.9636 204.511 55.0778C204.507 53.2264 203.922 51.7873 202.754 50.7608C201.621 49.6999 200.077 49.1711 198.123 49.1745L187.169 49.1935L187.161 44.5648L197.292 44.5472C198.424 44.5453 199.4 44.3379 200.223 43.925C201.079 43.4778 201.729 42.8938 202.174 42.173C202.653 41.4179 202.891 40.5603 202.889 39.6003C202.887 38.126 202.388 36.944 201.392 36.0542C200.43 35.1644 199.058 34.7211 197.275 34.7242L187.143 34.7418L187.135 29.9588L197.267 29.9412C200.627 29.9354 203.251 30.8223 205.14 32.6019C207.029 34.3473 207.976 36.6085 207.981 39.3857C207.983 40.62 207.693 41.7863 207.112 42.8845C206.531 43.9826 205.744 44.9097 204.751 45.6658C203.758 46.4218 202.645 46.9209 201.411 47.163L201.409 45.9287C202.952 46.0632 204.342 46.5751 205.577 47.4644C206.848 48.3536 207.844 49.4662 208.566 50.8021C209.323 52.138 209.702 53.6288 209.705 55.2745C209.711 58.4975 208.721 61.0878 206.736 63.0456C204.751 64.9691 201.992 65.9339 198.461 65.94L187.198 65.9595ZM184.523 65.9642L184.461 29.9634L189.501 29.9547L189.563 65.9554L184.523 65.9642ZM214.536 65.9121L214.491 40.043L219.634 40.0341L219.679 65.9032L214.536 65.9121ZM217.055 35.7185C216.095 35.7202 215.288 35.3958 214.636 34.7455C213.983 34.0609 213.656 33.2558 213.655 32.33C213.653 31.37 213.977 30.5637 214.628 29.9111C215.278 29.2586 216.083 28.9314 217.043 28.9298C217.969 28.9282 218.758 29.2525 219.41 29.9028C220.097 30.5531 220.442 31.3582 220.443 32.3182C220.445 33.244 220.103 34.0503 219.419 34.7372C218.769 35.3898 217.981 35.7169 217.055 35.7185ZM234.401 65.8777C232.035 65.8818 230.114 65.1308 228.637 63.6248C227.194 62.1187 226.471 60.0799 226.466 57.5084L226.424 33.1822L231.567 33.1733L231.609 57.0366C231.611 58.4423 231.939 59.4875 232.591 60.1721C233.278 60.8224 234.324 61.1463 235.73 61.1438L238.61 61.1388L238.868 61.7041L238.876 65.8699L234.401 65.8777ZM222.021 44.7615L222.013 40.03L238.831 40.0008L238.839 44.7324L222.021 44.7615Z" fill="white"/>
<defs>
<filter id="filter0_d_7059_98642" x="0.792627" y="0.241846" width="85.446" height="95.5163" filterUnits="userSpaceOnUse" color-interpolation-filters="sRGB">
<feFlood flood-opacity="0" result="BackgroundImageFix"/>
<feColorMatrix in="SourceAlpha" type="matrix" values="0 0 0 0 0 0 0 0 0 0 0 0 0 0 0 0 0 0 127 0" result="hardAlpha"/>
<feOffset/>
<feGaussianBlur stdDeviation="10.9338"/>
<feComposite in2="hardAlpha" operator="out"/>
<feColorMatrix type="matrix" values="0 0 0 0 1 0 0 0 0 1 0 0 0 0 1 0 0 0 0.35 0"/>
<feBlend mode="normal" in2="BackgroundImageFix" result="effect1_dropShadow_7059_98642"/>
<feBlend mode="normal" in="SourceGraphic" in2="effect1_dropShadow_7059_98642" result="shape"/>
</filter>
<linearGradient id="paint0_linear_7059_98642" x1="36.0409" y1="21.9335" x2="58.0278" y2="59.6994" gradientUnits="userSpaceOnUse">
<stop stop-color="#F8F8F8" stop-opacity="0.9"/>
<stop offset="1" stop-color="#F8F8F8" stop-opacity="0.2"/>
</linearGradient>
<linearGradient id="paint1_linear_7059_98642" x1="43.5165" y1="22.1094" x2="43.5165" y2="73.8906" gradientUnits="userSpaceOnUse">
<stop stop-color="#999999" stop-opacity="0"/>
<stop offset="1" stop-color="#F6F6F6"/>
</linearGradient>
</defs>
</svg>
