<svg width="27" height="27" viewBox="0 0 27 27" fill="none" xmlns="http://www.w3.org/2000/svg">
<path d="M14.7741 22.9106L15.1773 22.6149L14.7741 22.9106ZM17.9072 23.0271L18.2618 23.3796L17.9072 23.0271ZM25.5279 15.3611L25.1733 15.0086L25.5279 15.3611ZM25.5279 12.0807L25.1733 12.4332L25.5279 12.0807ZM14.7741 4.53124L14.3709 4.23556L14.7741 4.53124ZM17.9072 4.4147L18.2618 4.06219L17.9072 4.4147ZM4.10482 24.5487L3.75127 24.9022H3.75127L4.10482 24.5487ZM2.32731 22.7712L2.68087 22.4176L2.32731 22.7712ZM2.32731 17.9424L2.68087 18.2959H2.68087L2.32731 17.9424ZM4.10482 16.1649L3.75127 15.8113L4.10482 16.1649ZM8.9336 24.5487L8.58004 24.1951L8.9336 24.5487ZM17.3174 11.3361L17.6709 10.9826L17.3174 11.3361ZM17.3174 16.1649L17.6709 16.5184L17.3174 16.1649ZM4.10483 11.3361L3.75127 11.6897L3.75127 11.6897L4.10483 11.3361ZM2.32732 9.55859L2.68087 9.20504H2.68087L2.32732 9.55859ZM2.32732 4.72982L1.97376 4.37627L2.32732 4.72982ZM4.10482 2.95231L3.75127 2.59876L4.10482 2.95231ZM8.9336 2.95231L9.28715 2.59876L8.9336 2.95231ZM5.85976 1.52632L5.70525 1.05079L5.70525 1.05079L5.85976 1.52632ZM7.17867 1.52632L7.33317 1.05079L7.33317 1.05079L7.17867 1.52632ZM5.53082 14.4099L6.00635 14.5645L5.53082 14.4099ZM5.53082 13.091L5.05529 13.2455L5.53082 13.091ZM0.901324 7.80366L1.37685 7.64915H1.37685L0.901324 7.80366ZM0.901323 6.48475L0.425795 6.33025L0.425795 6.33025L0.901323 6.48475ZM0.901322 21.0162L0.425794 21.1707H0.425794L0.901322 21.0162ZM0.901322 19.6973L1.37685 19.8518H1.37685L0.901322 19.6973ZM18.7434 13.091L19.2189 12.9365V12.9365L18.7434 13.091ZM18.7434 14.4099L19.2189 14.5645L18.7434 14.4099ZM5.85976 25.9747L5.70525 26.4502L5.85976 25.9747ZM7.17866 25.9747L7.33317 26.4502L7.17866 25.9747ZM13.1255 7.14421L13.479 6.79066L13.479 6.79066L13.1255 7.14421ZM13.1949 7.2136L12.8413 7.56716L12.8413 7.56716L13.1949 7.2136ZM18.2618 23.3796L25.8825 15.7136L25.1733 15.0086L17.5526 22.6746L18.2618 23.3796ZM25.8825 11.7282L18.2618 4.06219L17.5526 4.7672L25.1733 12.4332L25.8825 11.7282ZM14.3709 23.2062C15.339 24.5264 17.1828 24.465 18.2618 23.3796L17.5526 22.6746C16.8305 23.4009 15.7213 23.3567 15.1773 22.6149L14.3709 23.2062ZM25.8825 15.7136C26.9769 14.6127 26.9769 12.8291 25.8825 11.7282L25.1733 12.4332C25.88 13.144 25.88 14.2978 25.1733 15.0086L25.8825 15.7136ZM15.1773 4.82691C15.7213 4.08515 16.8305 4.04087 17.5526 4.7672L18.2618 4.06219C17.1828 2.97678 15.339 2.91542 14.3709 4.23556L15.1773 4.82691ZM4.45838 24.1951L2.68087 22.4176L1.97376 23.1247L3.75127 24.9022L4.45838 24.1951ZM2.68087 18.2959L4.45838 16.5184L3.75127 15.8113L1.97376 17.5888L2.68087 18.2959ZM4.45838 10.9826L2.68087 9.20504L1.97376 9.91215L3.75127 11.6897L4.45838 10.9826ZM2.68087 5.08338L4.45838 3.30587L3.75127 2.59876L1.97376 4.37627L2.68087 5.08338ZM4.45838 3.30587C4.88677 2.87748 5.18707 2.57772 5.44007 2.36294C5.68861 2.15195 5.85841 2.05249 6.01427 2.00185L5.70525 1.05079C5.37384 1.15847 5.08873 1.34945 4.7929 1.6006C4.50153 1.84796 4.16799 2.18204 3.75127 2.59876L4.45838 3.30587ZM9.28715 2.59876C8.87043 2.18204 8.5369 1.84796 8.24553 1.6006C7.94969 1.34945 7.66458 1.15847 7.33317 1.05079L7.02416 2.00185C7.18001 2.05249 7.34981 2.15195 7.59835 2.36294C7.85135 2.57772 8.15165 2.87748 8.58004 3.30587L9.28715 2.59876ZM6.01426 2.00185C6.34245 1.89522 6.69597 1.89522 7.02416 2.00185L7.33317 1.05079C6.80414 0.878902 6.23428 0.878902 5.70525 1.05079L6.01426 2.00185ZM4.45838 16.5184C4.8751 16.1017 5.20918 15.7682 5.45654 15.4768C5.70768 15.181 5.89866 14.8959 6.00635 14.5645L5.05529 14.2554C5.00465 14.4113 4.90519 14.5811 4.6942 14.8296C4.47942 15.0826 4.17966 15.3829 3.75127 15.8113L4.45838 16.5184ZM3.75127 11.6897C4.17966 12.118 4.47942 12.4184 4.6942 12.6714C4.90519 12.9199 5.00465 13.0897 5.05529 13.2455L6.00635 12.9365C5.89866 12.6051 5.70768 12.32 5.45654 12.0242C5.20918 11.7328 4.8751 11.3993 4.45838 10.9826L3.75127 11.6897ZM6.00635 14.5645C6.17824 14.0354 6.17824 13.4656 6.00635 12.9365L5.05529 13.2455C5.16192 13.5737 5.16192 13.9272 5.05529 14.2554L6.00635 14.5645ZM2.68087 9.20504C2.25248 8.77665 1.95272 8.47634 1.73794 8.22334C1.52695 7.97481 1.42749 7.80501 1.37685 7.64915L0.425795 7.95817C0.533476 8.28958 0.724456 8.57468 0.975602 8.87052C1.22296 9.16189 1.55704 9.49542 1.97376 9.91215L2.68087 9.20504ZM1.97376 4.37627C1.55704 4.79299 1.22296 5.12652 0.975602 5.41789C0.724455 5.71373 0.533475 5.99884 0.425795 6.33025L1.37685 6.63926C1.42749 6.48341 1.52695 6.31361 1.73794 6.06507C1.95272 5.81207 2.25248 5.51177 2.68087 5.08338L1.97376 4.37627ZM1.37685 7.64915C1.27022 7.32097 1.27022 6.96745 1.37685 6.63926L0.425795 6.33025C0.253903 6.85928 0.253904 7.42914 0.425796 7.95817L1.37685 7.64915ZM2.68087 22.4176C2.25248 21.9892 1.95272 21.6889 1.73794 21.4359C1.52695 21.1874 1.42749 21.0176 1.37685 20.8617L0.425794 21.1707C0.533474 21.5021 0.724454 21.7872 0.975601 22.0831C1.22296 22.3745 1.55704 22.708 1.97376 23.1247L2.68087 22.4176ZM1.97376 17.5888C1.55704 18.0056 1.22296 18.3391 0.975601 18.6305C0.724455 18.9263 0.533474 19.2114 0.425794 19.5428L1.37685 19.8518C1.42749 19.696 1.52695 19.5262 1.73794 19.2776C1.95272 19.0246 2.25248 18.7243 2.68087 18.2959L1.97376 17.5888ZM1.37685 20.8617C1.27022 20.5335 1.27022 20.18 1.37685 19.8518L0.425794 19.5428C0.253902 20.0718 0.253902 20.6417 0.425794 21.1707L1.37685 20.8617ZM16.9638 11.6897C17.3922 12.118 17.692 12.4184 17.9068 12.6714C18.1178 12.9199 18.2172 13.0897 18.2679 13.2455L19.2189 12.9365C19.1112 12.6051 18.9202 12.32 18.6691 12.0242C18.4217 11.7328 18.0877 11.3993 17.6709 10.9826L16.9638 11.6897ZM17.6709 16.5184C18.0877 16.1017 18.4217 15.7682 18.6691 15.4768C18.9202 15.181 19.1112 14.8959 19.2189 14.5645L18.2679 14.2554C18.2172 14.4113 18.1178 14.5811 17.9068 14.8296C17.692 15.0826 17.3922 15.3829 16.9638 15.8113L17.6709 16.5184ZM18.2679 13.2455C18.3745 13.5737 18.3745 13.9273 18.2679 14.2554L19.2189 14.5645C19.3908 14.0354 19.3908 13.4656 19.2189 12.9365L18.2679 13.2455ZM3.75127 24.9022C4.16799 25.3189 4.50152 25.653 4.7929 25.9004C5.08873 26.1515 5.37384 26.3425 5.70525 26.4502L6.01427 25.4991C5.85841 25.4485 5.68861 25.349 5.44007 25.138C5.18707 24.9233 4.88677 24.6235 4.45838 24.1951L3.75127 24.9022ZM8.58004 24.1951C8.15165 24.6235 7.85135 24.9233 7.59835 25.138C7.34981 25.349 7.18001 25.4485 7.02415 25.4991L7.33317 26.4502C7.66458 26.3425 7.94969 26.1515 8.24552 25.9004C8.53689 25.653 8.87043 25.3189 9.28715 24.9022L8.58004 24.1951ZM5.70525 26.4502C6.23428 26.6221 6.80414 26.6221 7.33317 26.4502L7.02415 25.4991C6.69597 25.6058 6.34245 25.6058 6.01427 25.4991L5.70525 26.4502ZM8.58004 3.30587L12.7719 7.49776L13.479 6.79066L9.28715 2.59876L8.58004 3.30587ZM12.7719 7.49776L12.8413 7.56716L13.5484 6.86005L13.479 6.79066L12.7719 7.49776ZM12.8413 7.56716L16.9638 11.6897L17.6709 10.9826L13.5484 6.86005L12.8413 7.56716ZM14.3709 4.23556C13.7371 5.09986 13.1907 6.02738 12.7407 7.00445L13.649 7.42276C14.0709 6.50666 14.5832 5.63711 15.1773 4.82691L14.3709 4.23556ZM16.9638 15.8113L12.86 19.9151L13.5671 20.6222L17.6709 16.5184L16.9638 15.8113ZM12.86 19.9151L8.58004 24.1951L9.28715 24.9022L13.5671 20.6222L12.86 19.9151ZM12.76 20.4791C13.2063 21.4409 13.7462 22.3543 14.3709 23.2062L15.1773 22.6149C14.5917 21.8163 14.0856 20.9599 13.6671 20.0582L12.76 20.4791Z" fill="#616B68"/>
</svg>
