<svg width="692" height="211" viewBox="0 0 692 211" fill="none" xmlns="http://www.w3.org/2000/svg">
<g filter="url(#filter0_d_7927_21603)">
<rect x="547.52" y="25.5156" width="118.772" height="59.087" rx="14.5435" fill="url(#paint0_linear_7927_21603)" shape-rendering="crispEdges"/>
<rect x="548.145" y="26.1411" width="117.521" height="57.836" rx="13.918" stroke="url(#paint1_linear_7927_21603)" stroke-width="1.25098" shape-rendering="crispEdges"/>
<path d="M571.342 65.0586V62.1491H578.97C580.484 62.1491 581.631 61.7588 582.412 60.9782C583.193 60.1739 583.583 59.0621 583.583 57.6429C583.583 56.2945 583.169 55.2419 582.341 54.4849C581.513 53.7043 580.389 53.314 578.97 53.314H571.342V50.4755H578.367C579.195 50.4755 579.916 50.3217 580.531 50.0142C581.146 49.683 581.619 49.2454 581.951 48.7014C582.282 48.1573 582.447 47.5186 582.447 46.7853C582.447 45.6972 582.093 44.822 581.383 44.1597C580.697 43.4737 579.692 43.1307 578.367 43.1307H571.342V40.2212H578.367C580.638 40.2212 582.412 40.8362 583.689 42.0662C584.967 43.2726 585.605 44.822 585.605 46.7144C585.605 47.5423 585.404 48.3347 585.002 49.0917C584.6 49.8486 584.068 50.4873 583.405 51.0077C582.743 51.5281 581.998 51.8948 581.17 52.1077V51.2561C582.211 51.398 583.145 51.7765 583.973 52.3915C584.825 53.0065 585.499 53.7753 585.996 54.6978C586.516 55.6204 586.776 56.6257 586.776 57.7138C586.776 59.9374 586.09 61.7233 584.718 63.0716C583.37 64.3963 581.478 65.0586 579.041 65.0586H571.342ZM569.674 65.0586V40.2212H572.69V65.0586H569.674ZM590.17 65.0586V40.2212H593.186V65.0586H590.17ZM591.731 65.0586V62.1491H606.031V65.0586H591.731ZM591.731 53.9527V51.0077H605.25V53.9527H591.731ZM591.731 43.1307V40.2212H606.031V43.1307H591.731ZM615.584 65.0586V40.2212H618.635V65.0586H615.584ZM607.884 43.1307V40.2212H626.3V43.1307H607.884ZM642.766 65.0586L633.789 40.9663L633.54 40.2212H636.556L645.995 64.7747V65.0586H642.766ZM624.102 65.0586V64.7747L633.54 40.2212H636.556L636.308 40.9663L627.331 65.0586H624.102ZM627.757 58.6718L628.821 55.7268H641.63L642.695 58.6718H627.757Z" fill="white"/>
</g>
<g filter="url(#filter1_d_7927_21603)">
<path d="M23.4027 62.5488C21.8471 62.5488 20.5859 63.7463 20.5859 65.2235V155.768C20.5859 159.662 23.6844 162.813 27.495 162.795L38.6569 162.742C42.4675 162.724 45.5659 165.876 45.5659 169.769V183.239C45.5659 187.12 48.6451 190.266 52.4433 190.266L118.469 190.266C120.025 190.266 121.286 189.068 121.286 187.591V147.819C121.286 146.338 120.046 145.209 118.603 145.145C117.924 145.115 117.246 145.277 116.567 145.277H73.9402C70.1419 145.277 67.0628 142.131 67.0628 138.251V65.2235C67.0628 63.7463 65.8017 62.5488 64.246 62.5488H23.4027Z" fill="url(#paint2_linear_7927_21603)" shape-rendering="crispEdges"/>
<path d="M21.0767 65.2235C21.0767 64.041 22.0938 63.0396 23.4027 63.0396H64.246C65.5549 63.0396 66.5721 64.041 66.5721 65.2235V138.251C66.5721 142.392 69.861 145.768 73.9402 145.768H116.567C116.906 145.768 117.243 145.731 117.55 145.697C117.58 145.694 117.609 145.691 117.638 145.688C117.979 145.651 118.284 145.622 118.581 145.635C119.797 145.689 120.795 146.634 120.795 147.819V187.591C120.795 188.774 119.778 189.775 118.469 189.775L52.4433 189.775C48.926 189.775 46.0567 186.859 46.0567 183.239V169.769C46.0567 165.614 42.7471 162.232 38.6546 162.252L27.4926 162.304C23.9639 162.321 21.0767 159.4 21.0767 155.768V65.2235Z" stroke="url(#paint3_linear_7927_21603)" stroke-width="0.981468" shape-rendering="crispEdges"/>
</g>
<path d="M185.296 170.722L185.142 82.3003L197.774 82.2784L197.927 170.7L185.296 170.722ZM191.738 170.71L191.717 158.584L241.485 158.498L241.506 170.624L191.738 170.71ZM270.822 172.342C266.528 172.349 262.653 171.514 259.197 169.835C255.826 168.157 253.169 165.846 251.227 162.902C249.285 159.874 248.311 156.423 248.304 152.549C248.294 146.738 250.307 142.103 254.343 138.644C258.379 135.1 264.102 133.027 271.511 132.424L296.013 130.361L296.032 141.224L273.677 143.031C269.383 143.376 266.226 144.307 264.208 145.827C262.19 147.346 261.183 149.411 261.187 152.021C261.192 154.548 262.29 156.651 264.482 158.332C266.675 159.928 269.455 160.723 272.823 160.717C276.36 160.711 279.559 159.863 282.419 158.174C285.363 156.485 287.675 154.249 289.355 151.467C291.034 148.601 291.871 145.526 291.865 142.242L291.847 131.884C291.839 127.421 290.401 123.76 287.533 120.902C284.749 118.044 281.042 116.618 276.41 116.626C272.536 116.633 269.296 117.565 266.689 119.422C264.165 121.279 262.485 123.724 261.649 126.757L260.259 126.76L249.391 123.747C251.065 118.102 254.257 113.591 258.967 110.215C263.677 106.838 269.485 105.144 276.39 105.132C285.232 105.116 292.1 107.715 296.993 112.928C301.886 118.056 304.341 125.294 304.357 134.641L304.419 170.515L292.798 170.535L292.766 152.093L297.316 153.475C296.312 156.929 294.507 160.09 291.901 162.958C289.38 165.825 286.31 168.104 282.692 169.795C279.074 171.485 275.117 172.334 270.822 172.342ZM331.11 170.469L310.159 107.978L310.157 106.968L322.789 106.946L340.698 163.884L343.236 170.448L331.11 170.469ZM331.11 170.469L334.003 163.895L352.347 106.895L364.726 106.873L363.591 107.886L343.236 170.448L331.11 170.469ZM374.057 170.394L353.485 107.903L352.347 106.895L364.726 106.873L383.267 163.81L386.183 170.373L374.057 170.394ZM374.057 170.394L376.572 163.821L394.284 106.822L406.915 106.8L406.917 107.811L386.183 170.373L374.057 170.394ZM423.824 170.308L423.804 158.561L450.709 158.514C455.846 158.505 459.718 157.193 462.324 154.578C465.014 151.878 466.355 148.213 466.347 143.581C466.339 139.034 464.901 135.5 462.034 132.978C459.25 130.373 455.458 129.074 450.658 129.082L423.753 129.129L423.733 117.76L448.618 117.717C451.397 117.712 453.796 117.203 455.815 116.189C457.918 115.091 459.516 113.656 460.608 111.886C461.783 110.031 462.369 107.925 462.365 105.567C462.359 101.946 461.133 99.0429 458.687 96.8577C456.325 94.6723 452.955 93.5834 448.576 93.591L423.692 93.6341L423.671 81.8867L448.555 81.8436C456.808 81.8293 463.254 84.0076 467.893 88.3785C472.532 92.6652 474.858 98.2191 474.869 105.04C474.875 108.072 474.164 110.936 472.737 113.633C471.31 116.331 469.377 118.608 466.938 120.464C464.499 122.321 461.765 123.547 458.734 124.142L458.729 121.11C462.519 121.441 465.932 122.698 468.967 124.882C472.087 127.066 474.533 129.799 476.308 133.08C478.166 136.361 479.099 140.022 479.106 144.065C479.119 151.98 476.688 158.342 471.812 163.151C466.936 167.875 460.161 170.245 451.488 170.26L423.824 170.308ZM417.256 170.319L417.103 81.8981L429.482 81.8767L429.635 170.298L417.256 170.319ZM490.969 170.191L490.859 106.655L503.491 106.633L503.601 170.17L490.969 170.191ZM497.157 96.0331C494.799 96.0371 492.818 95.2406 491.216 93.6433C489.613 91.9619 488.809 89.9843 488.805 87.7107C488.801 85.3528 489.598 83.3724 491.195 81.7696C492.792 80.1669 494.77 79.3634 497.128 79.3593C499.401 79.3554 501.34 80.152 502.942 81.7493C504.629 83.3464 505.475 85.3238 505.479 87.6817C505.483 89.9554 504.644 91.9358 502.963 93.623C501.366 95.2258 499.43 96.0291 497.157 96.0331ZM539.761 170.107C533.95 170.117 529.231 168.272 525.604 164.573C522.061 160.874 520.283 155.867 520.272 149.551L520.169 89.8036L532.8 89.7817L532.902 148.392C532.908 151.845 533.713 154.412 535.315 156.093C537.002 157.691 539.572 158.486 543.025 158.48L550.099 158.468L550.733 159.856L550.75 170.088L539.761 170.107ZM509.355 118.244L509.335 106.623L550.64 106.551L550.66 118.172L509.355 118.244Z" fill="white"/>
<defs>
<filter id="filter0_d_7927_21603" x="522.25" y="0.245762" width="169.313" height="109.628" filterUnits="userSpaceOnUse" color-interpolation-filters="sRGB">
<feFlood flood-opacity="0" result="BackgroundImageFix"/>
<feColorMatrix in="SourceAlpha" type="matrix" values="0 0 0 0 0 0 0 0 0 0 0 0 0 0 0 0 0 0 127 0" result="hardAlpha"/>
<feOffset/>
<feGaussianBlur stdDeviation="12.6349"/>
<feComposite in2="hardAlpha" operator="out"/>
<feColorMatrix type="matrix" values="0 0 0 0 1 0 0 0 0 1 0 0 0 0 1 0 0 0 0.35 0"/>
<feBlend mode="normal" in2="BackgroundImageFix" result="effect1_dropShadow_7927_21603"/>
<feBlend mode="normal" in="SourceGraphic" in2="effect1_dropShadow_7927_21603" result="shape"/>
</filter>
<filter id="filter1_d_7927_21603" x="0.760288" y="42.7232" width="140.351" height="167.368" filterUnits="userSpaceOnUse" color-interpolation-filters="sRGB">
<feFlood flood-opacity="0" result="BackgroundImageFix"/>
<feColorMatrix in="SourceAlpha" type="matrix" values="0 0 0 0 0 0 0 0 0 0 0 0 0 0 0 0 0 0 127 0" result="hardAlpha"/>
<feOffset/>
<feGaussianBlur stdDeviation="9.91282"/>
<feComposite in2="hardAlpha" operator="out"/>
<feColorMatrix type="matrix" values="0 0 0 0 1 0 0 0 0 1 0 0 0 0 1 0 0 0 0.35 0"/>
<feBlend mode="normal" in2="BackgroundImageFix" result="effect1_dropShadow_7927_21603"/>
<feBlend mode="normal" in="SourceGraphic" in2="effect1_dropShadow_7927_21603" result="shape"/>
</filter>
<linearGradient id="paint0_linear_7927_21603" x1="585.62" y1="25.3149" x2="598.387" y2="80.0369" gradientUnits="userSpaceOnUse">
<stop stop-color="#F8F8F8" stop-opacity="0.9"/>
<stop offset="1" stop-color="#F8F8F8" stop-opacity="0.2"/>
</linearGradient>
<linearGradient id="paint1_linear_7927_21603" x1="606.905" y1="25.5156" x2="606.905" y2="84.6026" gradientUnits="userSpaceOnUse">
<stop stop-color="#999999" stop-opacity="0"/>
<stop offset="1" stop-color="#F6F6F6"/>
</linearGradient>
<linearGradient id="paint2_linear_7927_21603" x1="52.8888" y1="62.115" x2="107.687" y2="154.241" gradientUnits="userSpaceOnUse">
<stop stop-color="#F8F8F8" stop-opacity="0.9"/>
<stop offset="1" stop-color="#F8F8F8" stop-opacity="0.2"/>
</linearGradient>
<linearGradient id="paint3_linear_7927_21603" x1="70.9359" y1="62.5488" x2="70.9359" y2="190.266" gradientUnits="userSpaceOnUse">
<stop stop-color="#999999" stop-opacity="0"/>
<stop offset="1" stop-color="#F6F6F6"/>
</linearGradient>
</defs>
</svg>
