<svg width="25" height="24" viewBox="0 0 25 24" fill="none" xmlns="http://www.w3.org/2000/svg">
<path d="M3.58572 7.51C4.43508 5.85353 5.73757 4.46106 7.34775 3.48806C8.95794 2.51507 10.8124 1.99987 12.7041 2C15.4541 2 17.7643 2.991 19.5306 4.605L16.6051 7.473C15.5469 6.482 14.202 5.977 12.7041 5.977C10.0459 5.977 7.79592 7.737 6.9949 10.1C6.79082 10.7 6.67449 11.34 6.67449 12C6.67449 12.66 6.79082 13.3 6.9949 13.9C7.79694 16.264 10.0459 18.023 12.7041 18.023C14.0765 18.023 15.2449 17.668 16.1592 17.068C16.6892 16.726 17.143 16.2822 17.4931 15.7635C17.8431 15.2448 18.0822 14.6619 18.1959 14.05H12.7041V10.182H22.3143C22.4347 10.836 22.5 11.518 22.5 12.227C22.5 15.273 21.3878 17.837 19.4571 19.577C17.7694 21.105 15.4592 22 12.7041 22C11.3639 22.0005 10.0368 21.7422 8.79851 21.2399C7.56026 20.7375 6.43515 20.0009 5.48751 19.0722C4.53987 18.1436 3.78826 17.0409 3.27565 15.8275C2.76303 14.614 2.49946 13.3134 2.5 12C2.5 10.386 2.89388 8.86 3.58572 7.51Z" fill="black"/>
</svg>
