<svg width="24" height="24" viewBox="0 0 24 24" fill="none" xmlns="http://www.w3.org/2000/svg">
<path d="M3.60039 3.59961C3.28213 3.59961 2.97691 3.72604 2.75186 3.95108C2.52682 4.17612 2.40039 4.48135 2.40039 4.79961C2.40039 5.11787 2.52682 5.42309 2.75186 5.64814C2.97691 5.87318 3.28213 5.99961 3.60039 5.99961H16.8004C17.1186 5.99961 17.4239 5.87318 17.6489 5.64814C17.874 5.42309 18.0004 5.11787 18.0004 4.79961C18.0004 4.48135 17.874 4.17612 17.6489 3.95108C17.4239 3.72604 17.1186 3.59961 16.8004 3.59961H3.60039ZM3.60039 8.39961C3.28213 8.39961 2.97691 8.52604 2.75186 8.75108C2.52682 8.97612 2.40039 9.28135 2.40039 9.59961C2.40039 9.91787 2.52682 10.2231 2.75186 10.4481C2.97691 10.6732 3.28213 10.7996 3.60039 10.7996H9.60039C9.91865 10.7996 10.2239 10.6732 10.4489 10.4481C10.674 10.2231 10.8004 9.91787 10.8004 9.59961C10.8004 9.28135 10.674 8.97612 10.4489 8.75108C10.2239 8.52604 9.91865 8.39961 9.60039 8.39961H3.60039ZM3.60039 13.1996C3.28213 13.1996 2.97691 13.326 2.75186 13.5511C2.52682 13.7761 2.40039 14.0813 2.40039 14.3996C2.40039 14.7179 2.52682 15.0231 2.75186 15.2481C2.97691 15.4732 3.28213 15.5996 3.60039 15.5996H8.40039C8.71865 15.5996 9.02387 15.4732 9.24892 15.2481C9.47396 15.0231 9.60039 14.7179 9.60039 14.3996C9.60039 14.0813 9.47396 13.7761 9.24892 13.5511C9.02387 13.326 8.71865 13.1996 8.40039 13.1996H3.60039ZM15.6004 19.1996C15.6004 19.5179 15.7268 19.8231 15.9519 20.0481C16.1769 20.2732 16.4821 20.3996 16.8004 20.3996C17.1186 20.3996 17.4239 20.2732 17.6489 20.0481C17.874 19.8231 18.0004 19.5179 18.0004 19.1996V12.4964L19.552 14.048C19.7783 14.2666 20.0814 14.3876 20.3961 14.3848C20.7107 14.3821 21.0117 14.2559 21.2342 14.0334C21.4567 13.8109 21.5829 13.5099 21.5856 13.1953C21.5883 12.8807 21.4674 12.5775 21.2488 12.3512L17.6488 8.75121C17.4238 8.52624 17.1186 8.39987 16.8004 8.39987C16.4822 8.39987 16.177 8.52624 15.952 8.75121L12.352 12.3512C12.2374 12.4619 12.146 12.5943 12.0831 12.7407C12.0202 12.8871 11.9871 13.0446 11.9857 13.2039C11.9843 13.3633 12.0147 13.5213 12.075 13.6688C12.1353 13.8162 12.2244 13.9502 12.3371 14.0629C12.4498 14.1756 12.5838 14.2647 12.7312 14.325C12.8787 14.3853 13.0367 14.4157 13.1961 14.4143C13.3554 14.4129 13.5129 14.3798 13.6593 14.3169C13.8057 14.254 13.9381 14.1626 14.0488 14.048L15.6004 12.4964V19.1996Z" fill="#575757"/>
</svg>
