<svg width="112" height="131" viewBox="0 0 112 131" fill="none" xmlns="http://www.w3.org/2000/svg">
<g filter="url(#filter0_d_7061_98432)">
<path d="M18.2378 16C17.0019 16 16 16.9312 16 18.0798V84.052C16 89.5248 20.4499 93.9542 25.9226 93.9291C31.3952 93.9039 35.8451 98.3334 35.8451 103.806V104.622C35.8451 110.525 40.6307 115.31 46.5339 115.31L93.7622 115.31C94.9981 115.31 96 114.379 96 113.231V82.3043C96 81.9113 95.8852 81.5501 95.6885 81.2429C94.6231 79.5795 92.0612 80.328 90.0859 80.328H72.9231C61.8774 80.328 52.9231 71.3738 52.9231 60.3281V18.0798C52.9231 16.9312 51.9212 16 50.6853 16H18.2378Z" fill="url(#paint0_linear_7061_98432)" shape-rendering="crispEdges"/>
<path d="M16.3763 18.0798C16.3763 17.1645 17.1833 16.3763 18.2378 16.3763H50.6853C51.7398 16.3763 52.5468 17.1645 52.5468 18.0798V60.3281C52.5468 71.5816 61.6696 80.7044 72.9231 80.7044H90.0859C90.5648 80.7044 91.0746 80.662 91.5707 80.6208L91.6758 80.6121C92.2124 80.5678 92.7326 80.528 93.2207 80.5379C94.2054 80.558 94.9437 80.7779 95.3716 81.4459C95.5313 81.6953 95.6237 81.9865 95.6237 82.3043V113.231C95.6237 114.146 94.8167 114.934 93.7622 114.934L46.5339 114.934C40.8385 114.934 36.2214 110.317 36.2214 104.622V103.806C36.2214 98.1249 31.602 93.5266 25.9208 93.5528C20.6566 93.577 16.3763 89.3163 16.3763 84.052V18.0798Z" stroke="url(#paint1_linear_7061_98432)" stroke-width="0.752624" shape-rendering="crispEdges"/>
</g>
<defs>
<filter id="filter0_d_7061_98432" x="0.796987" y="0.796987" width="110.406" height="129.717" filterUnits="userSpaceOnUse" color-interpolation-filters="sRGB">
<feFlood flood-opacity="0" result="BackgroundImageFix"/>
<feColorMatrix in="SourceAlpha" type="matrix" values="0 0 0 0 0 0 0 0 0 0 0 0 0 0 0 0 0 0 127 0" result="hardAlpha"/>
<feOffset/>
<feGaussianBlur stdDeviation="7.60151"/>
<feComposite in2="hardAlpha" operator="out"/>
<feColorMatrix type="matrix" values="0 0 0 0 1 0 0 0 0 1 0 0 0 0 1 0 0 0 0.35 0"/>
<feBlend mode="normal" in2="BackgroundImageFix" result="effect1_dropShadow_7061_98432"/>
<feBlend mode="normal" in="SourceGraphic" in2="effect1_dropShadow_7061_98432" result="shape"/>
</filter>
<linearGradient id="paint0_linear_7061_98432" x1="41.6627" y1="15.6627" x2="83.831" y2="88.0932" gradientUnits="userSpaceOnUse">
<stop stop-color="#F8F8F8" stop-opacity="0.9"/>
<stop offset="1" stop-color="#F8F8F8" stop-opacity="0.2"/>
</linearGradient>
<linearGradient id="paint1_linear_7061_98432" x1="56" y1="16" x2="56" y2="115.31" gradientUnits="userSpaceOnUse">
<stop stop-color="#999999" stop-opacity="0"/>
<stop offset="1" stop-color="#F6F6F6"/>
</linearGradient>
</defs>
</svg>
