<svg width="149" height="177" viewBox="0 0 149 177" fill="none" xmlns="http://www.w3.org/2000/svg">
<g filter="url(#filter0_d_7915_21435)">
<path d="M24.5093 21.7168C22.8732 21.7168 21.5469 22.9762 21.5469 24.5298V119.755C21.5469 123.85 24.8055 127.163 28.813 127.145L40.552 127.09C44.5596 127.071 47.8181 130.385 47.8181 134.479V148.646C47.8181 152.727 51.0564 156.036 55.051 156.036L124.49 156.036C126.126 156.036 127.452 154.776 127.452 153.223V111.394C127.452 109.837 126.148 108.65 124.631 108.582C123.917 108.551 123.204 108.721 122.489 108.721H77.6591C73.6645 108.721 70.4262 105.413 70.4262 101.332V24.5298C70.4262 22.9762 69.0999 21.7168 67.4638 21.7168H24.5093Z" fill="url(#paint0_linear_7915_21435)" shape-rendering="crispEdges"/>
<path d="M22.063 24.5298C22.063 23.2861 23.1327 22.2329 24.5093 22.2329H67.4638C68.8404 22.2329 69.9101 23.2861 69.9101 24.5298V101.332C69.9101 105.688 73.3691 109.238 77.6591 109.238H122.489C122.846 109.238 123.201 109.199 123.523 109.163C123.554 109.16 123.585 109.157 123.616 109.153C123.974 109.114 124.295 109.084 124.608 109.098C125.886 109.155 126.936 110.148 126.936 111.394V153.223C126.936 154.466 125.866 155.52 124.49 155.52L55.051 155.52C51.3518 155.52 48.3342 152.453 48.3342 148.646V134.479C48.3342 130.109 44.8536 126.553 40.5496 126.573L28.8106 126.629C25.0995 126.646 22.063 123.574 22.063 119.755V24.5298Z" stroke="url(#paint1_linear_7915_21435)" stroke-width="1.0322" shape-rendering="crispEdges"/>
</g>
<defs>
<filter id="filter0_d_7915_21435" x="0.6964" y="0.866322" width="147.607" height="176.019" filterUnits="userSpaceOnUse" color-interpolation-filters="sRGB">
<feFlood flood-opacity="0" result="BackgroundImageFix"/>
<feColorMatrix in="SourceAlpha" type="matrix" values="0 0 0 0 0 0 0 0 0 0 0 0 0 0 0 0 0 0 127 0" result="hardAlpha"/>
<feOffset/>
<feGaussianBlur stdDeviation="10.4252"/>
<feComposite in2="hardAlpha" operator="out"/>
<feColorMatrix type="matrix" values="0 0 0 0 1 0 0 0 0 1 0 0 0 0 1 0 0 0 0.35 0"/>
<feBlend mode="normal" in2="BackgroundImageFix" result="effect1_dropShadow_7915_21435"/>
<feBlend mode="normal" in="SourceGraphic" in2="effect1_dropShadow_7915_21435" result="shape"/>
</filter>
<linearGradient id="paint0_linear_7915_21435" x1="55.5195" y1="21.2606" x2="113.15" y2="118.149" gradientUnits="userSpaceOnUse">
<stop stop-color="#F8F8F8" stop-opacity="0.9"/>
<stop offset="1" stop-color="#F8F8F8" stop-opacity="0.2"/>
</linearGradient>
<linearGradient id="paint1_linear_7915_21435" x1="74.4995" y1="21.7168" x2="74.4995" y2="156.036" gradientUnits="userSpaceOnUse">
<stop stop-color="#999999" stop-opacity="0"/>
<stop offset="1" stop-color="#F6F6F6"/>
</linearGradient>
</defs>
</svg>
