<svg width="131" height="40" viewBox="0 0 131 40" fill="none" xmlns="http://www.w3.org/2000/svg">
<path d="M2.9085 29V6.6H5.6285V29H2.9085ZM4.3165 29V26.376H16.8925V29H4.3165ZM25.6982 29.416C24.5889 29.416 23.5969 29.2027 22.7222 28.776C21.8689 28.3493 21.1969 27.7627 20.7062 27.016C20.2156 26.248 19.9702 25.3733 19.9702 24.392C19.9702 22.984 20.4716 21.8427 21.4742 20.968C22.4982 20.0933 23.9062 19.5813 25.6982 19.432L31.8742 18.984V21.416L26.2422 21.864C25.0689 21.9493 24.1942 22.2053 23.6182 22.632C23.0636 23.0373 22.7862 23.6133 22.7862 24.36C22.7862 25.064 23.0849 25.6507 23.6822 26.12C24.2796 26.5893 25.0476 26.824 25.9862 26.824C26.9462 26.824 27.8209 26.6 28.6102 26.152C29.3996 25.704 30.0182 25.1067 30.4662 24.36C30.9356 23.6133 31.1702 22.7813 31.1702 21.864V19.272C31.1702 18.056 30.7862 17.0533 30.0182 16.264C29.2716 15.4747 28.2689 15.08 27.0102 15.08C26.0289 15.08 25.1862 15.3253 24.4822 15.816C23.7782 16.2853 23.2982 16.9467 23.0422 17.8H22.6902L20.3222 17.032C20.7916 15.6027 21.6129 14.4933 22.7862 13.704C23.9596 12.9147 25.3782 12.52 27.0422 12.52C29.2182 12.52 30.8929 13.1707 32.0662 14.472C33.2609 15.7733 33.8582 17.608 33.8582 19.976V29H31.2982V24.328L32.2582 24.84C32.0022 25.7147 31.5436 26.504 30.8822 27.208C30.2422 27.8907 29.4742 28.4347 28.5782 28.84C27.7036 29.224 26.7436 29.416 25.6982 29.416ZM41.9027 29L36.6867 13.224V12.968H39.4067L43.7907 26.792L44.4627 29H41.9027ZM41.9027 29L42.7347 26.792L47.3427 12.968H49.9027L49.8067 13.224L44.4627 29H41.9027ZM52.7827 29L47.4707 13.224L47.3427 12.968H49.9027L54.5107 26.792L55.3427 29H52.7827ZM52.7827 29L53.4547 26.792L57.8067 12.968H60.5587V13.224L55.3427 29H52.7827ZM72.54 29.416C71.4307 29.416 70.4067 29.192 69.468 28.744C68.5507 28.296 67.7613 27.6773 67.1 26.888C66.46 26.0987 65.9907 25.2027 65.692 24.2V17.768C65.9907 16.744 66.46 15.848 67.1 15.08C67.7613 14.2907 68.5507 13.672 69.468 13.224C70.4067 12.776 71.4307 12.552 72.54 12.552C73.9907 12.552 75.2813 12.9147 76.412 13.64C77.5427 14.3653 78.4493 15.368 79.132 16.648C79.8147 17.9067 80.156 19.3467 80.156 20.968C80.156 22.6107 79.8147 24.072 79.132 25.352C78.4493 26.6107 77.5427 27.6027 76.412 28.328C75.2813 29.0533 73.9907 29.416 72.54 29.416ZM64.316 29V5.96L66.94 5.64L67.036 5.896V18.696L66.46 20.968L66.94 23.272V29H64.316ZM72.348 26.824C73.3293 26.824 74.204 26.5787 74.972 26.088C75.74 25.576 76.3373 24.8827 76.764 24.008C77.212 23.1333 77.436 22.12 77.436 20.968C77.436 19.816 77.212 18.8027 76.764 17.928C76.3373 17.0533 75.74 16.3707 74.972 15.88C74.204 15.3893 73.3293 15.144 72.348 15.144C71.324 15.144 70.4067 15.3893 69.596 15.88C68.8067 16.3707 68.1773 17.0533 67.708 17.928C67.26 18.8027 67.036 19.816 67.036 20.968C67.036 22.12 67.26 23.1333 67.708 24.008C68.1773 24.8827 68.8067 25.576 69.596 26.088C70.4067 26.5787 71.324 26.824 72.348 26.824ZM84.5535 29V12.968H87.2735V29H84.5535ZM85.9295 9.992C85.3962 9.992 84.9482 9.81067 84.5855 9.448C84.2228 9.08533 84.0415 8.63733 84.0415 8.104C84.0415 7.57067 84.2228 7.12267 84.5855 6.76C84.9482 6.376 85.3962 6.184 85.9295 6.184C86.4628 6.184 86.9108 6.376 87.2735 6.76C87.6575 7.12267 87.8495 7.57067 87.8495 8.104C87.8495 8.63733 87.6575 9.08533 87.2735 9.448C86.9108 9.81067 86.4628 9.992 85.9295 9.992ZM97.5303 29C96.1436 29 95.0129 28.5627 94.1383 27.688C93.2636 26.792 92.8263 25.5867 92.8263 24.072V8.648H95.5463V23.848C95.5463 24.7653 95.7489 25.4267 96.1543 25.832C96.5596 26.216 97.2103 26.408 98.1063 26.408H100.026L100.186 26.76V29H97.5303ZM90.0743 15.528V12.968H100.186V15.528H90.0743Z" fill="#202020"/>
<path d="M111.108 12V0.799999H112.484V12H111.108ZM107.636 2.112V0.799999H115.94V2.112H107.636ZM123.114 12L123.13 11.664L127.77 0.799999H129.066V1.136L124.426 12H123.114ZM118.058 12V0.799999H119.418V12H118.058ZM123.13 12L118.474 1.136V0.799999H119.786L124.426 11.664V12H123.13ZM128.122 12V0.799999H129.482V12H128.122Z" fill="#202020"/>
</svg>
