<svg width="25" height="25" viewBox="0 0 25 25" fill="none" xmlns="http://www.w3.org/2000/svg">
<g clip-path="url(#clip0_175_7416)">
<path d="M14.5 3.77344V7.77344C14.5 8.03865 14.6054 8.29301 14.7929 8.48054C14.9804 8.66808 15.2348 8.77344 15.5 8.77344H19.5" stroke="white" stroke-width="1.5" stroke-linecap="round" stroke-linejoin="round"/>
<path d="M5.5 12.7734V5.77344C5.5 5.243 5.71071 4.7343 6.08579 4.35922C6.46086 3.98415 6.96957 3.77344 7.5 3.77344H14.5L19.5 8.77344V12.7734" stroke="white" stroke-width="1.5" stroke-linecap="round" stroke-linejoin="round"/>
<path d="M5.5 19.2734H7.5C8.03043 19.2734 8.53914 19.0891 8.91421 18.7609C9.28929 18.4327 9.5 17.9876 9.5 17.5234C9.5 17.0593 9.28929 16.6142 8.91421 16.286C8.53914 15.9578 8.03043 15.7734 7.5 15.7734H5.5V21.7734" stroke="white" stroke-width="1.5" stroke-linecap="round" stroke-linejoin="round"/>
<path d="M17.5 18.7734H19.5" stroke="white" stroke-width="1.5" stroke-linecap="round" stroke-linejoin="round"/>
<path d="M20.5 15.7734L17.5 15.7734V21.7734" stroke="white" stroke-width="1.5" stroke-linecap="round" stroke-linejoin="round"/>
<path d="M11.5 15.7734V21.7734H13C13.5304 21.7734 14.0391 21.5627 14.4142 21.1877C14.7893 20.8126 15 20.3039 15 19.7734V17.7734C15 17.243 14.7893 16.7343 14.4142 16.3592C14.0391 15.9842 13.5304 15.7734 13 15.7734H11.5Z" stroke="white" stroke-width="1.5" stroke-linecap="round" stroke-linejoin="round"/>
</g>
<defs>
<clipPath id="clip0_175_7416">
<rect width="24" height="24" fill="white" transform="translate(0.5 0.773438)"/>
</clipPath>
</defs>
</svg>
